<svg version="1.1" id="Layer_1" xmlns="http://www.w3.org/2000/svg" xmlns:xlink="http://www.w3.org/1999/xlink" x="0px" y="0px"
	 width="100%" viewBox="0 0 536 160" enable-background="new 0 0 536 160" xml:space="preserve">
<path fill="#FEFEFF" opacity="1.000000" stroke="none" 
	d="
M416.000000,161.000000 
	C278.833344,161.000000 142.166702,160.982117 5.500151,161.094147 
	C1.750821,161.097214 0.892369,160.250992 0.903106,156.499802 
	C1.047644,106.000221 1.044037,55.499969 0.902497,5.000375 
	C0.892897,1.575300 1.576077,0.903300 4.999954,0.905390 
	C180.999847,1.012838 356.999847,1.012831 532.999756,0.905430 
	C536.423035,0.903342 537.107117,1.574394 537.097534,5.000073 
	C536.956116,55.666336 536.956116,106.333237 537.097473,156.999496 
	C537.106995,160.424271 536.426514,161.112335 532.999878,161.098602 
	C494.167053,160.943115 455.333405,161.000000 416.000000,161.000000 
z"/>
<path fill="#FAFBFB" opacity="1.000000" stroke="none" 
	d="
M59.533768,14.877916 
	C59.930382,14.982518 60.332653,14.981973 60.533737,14.986628 
	C62.348656,17.912607 60.269627,20.532219 59.961807,23.685783 
	C55.157684,36.942509 49.586178,41.133038 36.568970,41.352264 
	C35.086414,41.348526 34.113010,41.683395 33.196495,42.851654 
	C32.984753,43.079803 32.995159,43.552643 32.992638,43.789104 
	C32.728191,44.110184 32.466274,44.194805 31.852839,44.062195 
	C21.854115,32.315811 32.608906,14.733001 46.256004,14.653491 
	C50.553734,14.628452 54.841324,15.205952 59.533768,14.877916 
z"/>
<path fill="#F7FAFB" opacity="1.000000" stroke="none" 
	d="
M64.492157,23.752533 
	C63.948158,23.927469 63.697403,23.926306 63.070976,23.906536 
	C60.953392,17.952629 64.649170,10.462193 71.099701,7.069210 
	C77.904526,3.489864 84.606606,4.138943 91.113281,7.890398 
	C94.766556,9.996716 97.539093,13.160996 100.741089,16.398970 
	C101.640694,18.682755 100.353462,19.908279 99.154129,20.976429 
	C94.536072,25.089359 89.586586,28.628746 82.774246,29.243401 
	C77.910637,29.633759 74.015503,28.224611 70.499184,25.441799 
	C68.874542,24.156063 67.253799,22.453398 64.492157,23.752533 
z"/>
<path fill="#FAFBFD" opacity="1.000000" stroke="none" 
	d="
M24.752552,38.296638 
	C25.071167,37.715702 25.230833,37.455139 25.667023,37.119911 
	C28.107821,38.954269 28.553329,41.955673 30.276390,44.676193 
	C32.726566,49.635040 32.569378,54.524868 32.108795,59.833664 
	C30.886566,65.299614 27.925997,69.118668 23.695152,71.992889 
	C21.878542,73.227005 20.457193,74.751114 19.201029,76.982651 
	C11.763724,76.163368 6.366484,68.366447 7.248751,60.215061 
	C7.480108,58.077534 7.778072,55.914631 8.802324,53.550446 
	C11.574407,48.455593 15.351664,44.859955 20.121767,42.374744 
	C21.938385,41.428288 23.421539,40.267448 24.752552,38.296638 
z"/>
<path fill="#2681BD" opacity="1.000000" stroke="none" 
	d="
M305.045349,103.793144 
	C304.860931,105.899193 305.802704,108.301491 302.655426,107.964867 
	C299.910645,107.671280 301.060181,105.465446 301.007538,104.073296 
	C300.856689,100.085999 300.954346,96.089302 300.220306,91.845367 
	C298.817383,96.036705 297.476349,100.250328 295.979492,104.407845 
	C295.422180,105.955811 295.542969,108.118637 292.793671,108.048141 
	C290.120300,107.979591 290.177307,106.015495 289.649353,104.331741 
	C288.338989,100.152527 287.001526,95.981812 285.044037,91.947487 
	C285.044037,96.064018 285.123627,100.182953 285.000000,104.295769 
	C284.957855,105.698517 285.969177,107.860397 283.121429,107.988541 
	C280.235809,108.118393 281.038696,105.978546 281.018433,104.516647 
	C280.944641,99.190842 280.941681,93.862633 281.022980,88.537025 
	C281.045166,87.083496 280.217041,84.899818 283.083405,85.014252 
	C285.142120,85.096451 287.344543,84.370079 288.134552,87.565857 
	C289.281799,92.206390 290.936340,96.721512 292.580902,101.945763 
	C295.563629,97.459801 296.281464,92.701859 297.700775,88.301041 
	C298.635162,85.403847 300.104187,84.837852 302.759277,84.955917 
	C306.321228,85.114319 304.921967,87.712631 304.982910,89.338280 
	C305.157501,93.992722 305.045349,98.657913 305.045349,103.793144 
z"/>
<path fill="#2681BD" opacity="1.000000" stroke="none" 
	d="
M151.496246,91.982605 
	C149.868774,95.818413 148.671875,99.607773 147.265793,103.317841 
	C146.583862,105.117104 147.115540,107.885391 143.934631,108.006477 
	C140.291702,108.145149 140.967209,104.920753 140.241043,103.044945 
	C138.836594,99.417000 137.896240,95.609390 136.043579,91.978516 
	C136.043579,96.356529 136.033218,100.734589 136.049133,105.112549 
	C136.054825,106.676147 136.144165,108.129875 133.814865,108.014839 
	C131.723633,107.911552 132.003815,106.497948 131.999115,105.219292 
	C131.978363,99.566010 131.955322,93.912201 132.017868,88.259529 
	C132.032501,86.936760 131.353012,84.950684 133.837723,85.045052 
	C135.823212,85.120461 138.200470,84.122063 139.061478,87.326050 
	C140.329834,92.045799 141.930038,96.676376 143.644775,102.163788 
	C146.476929,97.252800 147.425507,92.562851 148.762268,88.100365 
	C149.693863,84.990463 151.499130,84.897438 153.964401,84.984344 
	C157.204742,85.098579 155.946304,87.533279 155.987122,89.028694 
	C156.132278,94.345535 156.055893,99.668816 156.035202,104.989548 
	C156.029572,106.439598 156.369110,108.070786 153.935074,108.014603 
	C151.476089,107.957840 151.996490,106.242279 151.970596,104.862679 
	C151.889572,100.543671 151.878769,96.223351 151.496246,91.982605 
z"/>
<path fill="#5E5E60" opacity="1.000000" stroke="none" 
	d="
M114.023331,47.152283 
	C117.718651,46.393349 119.600838,47.774994 121.059219,50.739548 
	C123.165207,55.020565 125.748917,59.066574 128.953629,63.146168 
	C128.953629,58.808891 128.926880,54.471355 128.969055,50.134487 
	C128.982666,48.734882 128.535645,47.018204 130.979523,47.018936 
	C133.436813,47.019672 132.962189,48.750553 132.972733,50.141392 
	C133.013077,55.459549 133.067429,60.780087 132.937561,66.095360 
	C132.903839,67.475021 134.032608,69.732216 131.242508,69.918106 
	C129.129745,70.058861 127.119217,70.318443 125.789276,67.715378 
	C123.344620,62.930496 120.473488,58.363499 117.030197,52.408806 
	C117.030197,58.334755 117.044418,62.744644 117.021301,67.154335 
	C117.014587,68.434372 117.303658,69.879822 115.218063,69.968414 
	C113.365639,70.047096 112.934830,69.112129 113.016068,67.538612 
	C113.365173,60.776466 112.292068,53.974125 114.023331,47.152283 
z"/>
<path fill="#2380BC" opacity="1.000000" stroke="none" 
	d="
M415.992554,93.994476 
	C417.472473,96.602539 418.811768,98.872482 420.963928,102.520119 
	C420.963928,96.797562 420.931763,92.473228 420.982697,88.149879 
	C420.998871,86.778816 420.478241,85.048996 422.939484,85.000992 
	C425.401062,84.952980 424.980133,86.640488 424.988953,88.053764 
	C425.022125,93.366989 425.091370,98.682838 424.948547,103.992363 
	C424.911499,105.369560 426.131470,107.665207 423.421844,107.923866 
	C421.384949,108.118317 419.261658,108.560356 417.899689,105.917290 
	C415.419617,101.104446 412.554901,96.489807 409.039124,91.907631 
	C409.039124,96.264458 409.056061,100.621384 409.029541,104.978043 
	C409.020813,106.414238 409.390106,108.064316 406.948853,108.009041 
	C404.475098,107.953033 405.024933,106.213455 405.013367,104.851784 
	C404.966736,99.372726 404.942719,93.892174 405.032990,88.414200 
	C405.053955,87.141373 404.190918,85.108788 406.683289,85.056953 
	C408.571442,85.017677 410.680420,84.351997 411.902130,86.759621 
	C413.099396,89.119095 414.526001,91.362190 415.992554,93.994476 
z"/>
<path fill="#2782BD" opacity="1.000000" stroke="none" 
	d="
M88.357872,106.780807 
	C84.539459,108.544281 80.862503,107.834602 77.267258,108.024742 
	C75.029869,108.143066 74.965500,106.798752 74.974625,105.169334 
	C75.007095,99.370811 74.966568,93.571846 75.007393,87.773438 
	C75.014832,86.716042 74.580467,85.163834 76.336899,85.090912 
	C80.610794,84.913467 84.993256,84.388412 88.934105,86.621780 
	C91.105751,87.852501 91.947304,90.560371 90.773766,92.218285 
	C88.799896,95.006866 89.578850,96.717224 91.037041,99.296051 
	C92.565208,101.998665 91.359161,104.750839 88.357872,106.780807 
z"/>
<path fill="#2E86BF" opacity="1.000000" stroke="none" 
	d="
M81.742882,28.578175 
	C89.871048,27.481325 95.589691,22.976641 101.111023,17.069950 
	C101.551163,16.408957 101.714432,16.304823 102.445045,16.121635 
	C107.921982,14.528887 112.878403,12.940669 118.050751,14.398722 
	C124.930550,16.338097 130.005508,20.508068 133.153748,27.057459 
	C134.596741,30.059374 138.197235,32.399883 135.133102,36.417793 
	C134.355637,37.437260 133.368240,38.815971 132.724823,37.464951 
	C131.534454,34.965481 126.152435,33.850319 129.737411,29.525221 
	C129.959549,29.257244 129.482574,28.311811 129.205399,27.742680 
	C125.077148,19.266674 111.693512,12.133360 101.904846,21.732368 
	C96.561020,26.972654 90.589966,30.905703 82.476830,31.600529 
	C81.282982,30.880262 81.202698,29.964800 81.742882,28.578175 
z"/>
<path fill="#2681BD" opacity="1.000000" stroke="none" 
	d="
M335.623596,87.496216 
	C336.529358,83.011009 339.744202,85.165268 341.715179,85.125183 
	C350.565277,84.945183 354.883331,89.837479 354.020416,98.487534 
	C353.352020,105.187782 342.578339,110.978546 336.636505,107.877365 
	C335.216858,107.136414 335.651001,105.909012 335.640625,104.855461 
	C335.584930,99.219299 335.615051,93.582306 335.623596,87.496216 
z"/>
<path fill="#2A84BE" opacity="1.000000" stroke="none" 
	d="
M395.224854,66.139481 
	C393.904541,67.211861 392.943298,68.256767 391.754944,68.723663 
	C387.985657,70.204620 383.571960,71.218239 380.168579,69.601349 
	C377.282684,68.230301 379.413055,63.907162 379.022247,60.922749 
	C378.787292,59.128819 378.620300,57.186920 379.059937,55.475166 
	C379.783508,52.657738 376.578796,48.240631 381.156494,47.142578 
	C388.881622,45.289528 395.503204,48.700722 397.075348,54.428444 
	C398.180267,58.454071 397.743683,62.283127 395.224854,66.139481 
z"/>
<path fill="#2A84BE" opacity="1.000000" stroke="none" 
	d="
M184.781616,108.017830 
	C180.088333,108.784042 178.440933,107.313622 178.876953,102.770683 
	C179.333817,98.010559 178.929901,93.171738 179.017334,88.369408 
	C179.038483,87.208580 178.277191,85.291206 180.239731,85.133469 
	C185.007202,84.750267 189.931229,84.373856 194.003281,87.581573 
	C197.477997,90.318748 198.030533,94.264297 197.445129,98.385605 
	C196.540222,104.756416 193.302307,107.263687 184.781616,108.017830 
z"/>
<path fill="#2380BC" opacity="1.000000" stroke="none" 
	d="
M460.012939,46.998337 
	C463.268616,47.042702 466.039825,46.839600 468.774689,47.865742 
	C470.881561,48.656250 472.989075,50.335716 472.251556,52.008400 
	C470.409119,56.186886 471.649689,59.668335 472.919891,63.526958 
	C473.647186,65.736351 471.878784,67.553642 469.903931,68.719589 
	C469.344574,69.049828 468.663483,69.169289 468.046936,69.407959 
	C464.990601,70.591164 461.593567,70.570213 458.748474,69.798264 
	C454.413666,68.622093 457.197205,64.519432 456.863770,61.791069 
	C456.384644,57.870892 456.819092,53.846291 456.713806,49.870232 
	C456.658325,47.774540 457.350861,46.726948 460.012939,46.998337 
z"/>
<path fill="#5E5E60" opacity="1.000000" stroke="none" 
	d="
M174.643097,58.986233 
	C174.643173,56.838806 174.380539,55.125889 174.705872,53.533054 
	C175.149078,51.363033 172.976349,47.779541 176.311951,47.241066 
	C180.573807,46.553059 185.544464,45.987564 188.756683,50.034924 
	C191.184692,53.094170 190.377548,56.455433 187.301208,58.740658 
	C185.516586,60.066349 186.527023,60.932152 187.163406,61.977631 
	C188.700958,64.503540 190.312256,66.984550 191.929596,69.540199 
	C188.835190,70.630287 186.896820,69.785469 185.629578,67.072838 
	C184.933334,65.582474 183.927689,64.238708 183.094620,62.809563 
	C182.372925,61.571438 181.467224,60.585072 179.914322,61.156132 
	C178.396393,61.714333 179.220978,63.142048 179.063110,64.181984 
	C178.940002,64.993011 179.054733,65.838043 179.034805,66.667267 
	C178.996384,68.264954 179.463669,70.086288 176.737991,69.998642 
	C173.937805,69.908607 174.728577,67.917816 174.666504,66.442673 
	C174.568909,64.123634 174.641754,61.797428 174.643097,58.986233 
z"/>
<path fill="#2681BD" opacity="1.000000" stroke="none" 
	d="
M120.707916,107.084427 
	C115.066582,108.737854 109.838158,107.391258 107.378105,103.817268 
	C104.900101,100.217186 105.111633,92.048790 107.769699,88.695488 
	C110.526100,85.218132 116.137161,84.057335 120.938011,85.951302 
	C125.008873,87.557274 126.606239,90.941185 126.946938,94.912956 
	C127.383263,99.999527 126.188400,104.502419 120.707916,107.084427 
z"/>
<path fill="#2782BD" opacity="1.000000" stroke="none" 
	d="
M331.003906,95.244827 
	C330.697815,105.204552 324.814209,109.992256 316.708984,107.302498 
	C310.951630,105.391891 309.030121,101.769279 309.794739,94.267204 
	C310.349518,88.823647 313.532440,85.646133 319.070648,85.007072 
	C324.574799,84.371941 328.778198,87.234917 330.594696,92.884071 
	C330.795807,93.509407 330.866547,94.176659 331.003906,95.244827 
z"/>
<path fill="#5E5E60" opacity="1.000000" stroke="none" 
	d="
M228.425903,47.105827 
	C233.782486,46.913960 238.124420,48.084656 240.026108,53.251751 
	C241.855316,58.221951 241.734848,63.216324 237.759506,67.115822 
	C234.244858,70.563423 229.792816,70.729797 225.338501,68.889618 
	C220.352798,66.829910 219.547638,62.529396 219.677277,57.814461 
	C219.847076,51.638958 221.490738,49.559464 228.425903,47.105827 
z"/>
<path fill="#2782BD" opacity="1.000000" stroke="none" 
	d="
M352.990570,57.248192 
	C354.972382,48.626659 360.104309,45.331478 367.245239,47.677849 
	C373.207611,49.636978 375.468811,54.488480 374.021057,62.215439 
	C373.126740,66.988708 368.805511,70.155472 363.385742,70.009453 
	C357.511597,69.851181 353.736694,66.283630 353.007446,60.155270 
	C352.910034,59.336971 352.989410,58.497631 352.990570,57.248192 
z"/>
<path fill="#2A84BE" opacity="1.000000" stroke="none" 
	d="
M349.906738,68.531464 
	C348.431610,70.960129 346.771454,70.351059 345.264832,68.827522 
	C344.583618,68.138680 344.293121,67.076416 343.653961,66.330490 
	C342.136505,64.559631 341.922668,60.703423 339.058868,61.305470 
	C336.122192,61.922844 338.042847,65.256256 337.741852,67.344879 
	C337.487946,69.106758 337.160431,70.070473 335.130341,70.050743 
	C333.260895,70.032562 332.958221,69.119194 332.968750,67.570465 
	C333.009460,61.589905 332.964111,55.608738 333.011078,49.628265 
	C333.017120,48.857029 333.133728,47.845570 333.616577,47.363815 
	C335.138672,45.845192 345.170258,47.224194 346.813324,49.347046 
	C349.101166,52.302948 349.289368,55.610245 346.338318,58.215580 
	C344.365082,59.957611 344.989502,61.171112 346.172028,62.792374 
	C347.440369,64.531288 348.569153,66.371986 349.906738,68.531464 
z"/>
<path fill="#2A84BE" opacity="1.000000" stroke="none" 
	d="
M288.273865,58.403679 
	C286.089630,59.887230 287.076691,61.106564 287.947815,62.407230 
	C289.411621,64.592896 290.798279,66.830246 292.457947,69.421448 
	C289.787567,70.382721 287.864288,70.455612 286.574921,67.787643 
	C286.144562,66.897018 285.617676,66.018997 284.975983,65.271683 
	C283.694458,63.779274 283.632477,60.370995 280.802551,61.305115 
	C278.543854,62.050690 279.951721,64.781822 279.702484,66.611946 
	C279.484436,68.212738 280.000549,69.974052 277.358002,70.056381 
	C274.694794,70.139351 274.977600,68.458611 274.978851,66.794373 
	C274.983093,61.142960 275.053741,55.490154 274.944946,49.840847 
	C274.904114,47.718796 275.546783,46.764477 277.764557,46.964504 
	C280.068970,47.172352 282.468842,46.870445 284.686005,47.391422 
	C290.704651,48.805664 291.972137,52.585926 288.273865,58.403679 
z"/>
<path fill="#606062" opacity="1.000000" stroke="none" 
	d="
M259.146118,62.737244 
	C260.525513,65.205894 262.409454,66.959427 263.048157,69.495728 
	C260.362061,70.608734 258.566223,69.856239 257.304138,67.361435 
	C256.481445,65.735229 255.386566,64.249008 254.490067,62.657032 
	C253.866165,61.549091 253.145065,60.753323 251.745621,61.120651 
	C250.398438,61.474255 250.928482,62.699692 250.589874,63.540634 
	C249.721130,65.698120 252.983780,70.281555 247.856537,69.768051 
	C243.875275,69.369316 246.427658,65.447594 246.100861,63.192181 
	C245.651657,60.091961 245.987061,56.878014 245.986832,53.712791 
	C245.986267,46.345100 246.210129,46.157288 253.960495,47.019333 
	C259.553986,47.641476 261.977722,50.331993 261.258911,54.949856 
	C261.005707,56.576653 260.166718,57.775684 258.949158,58.653618 
	C257.079193,60.001965 258.039520,61.164593 259.146118,62.737244 
z"/>
<path fill="#2681BD" opacity="1.000000" stroke="none" 
	d="
M442.871338,103.516190 
	C443.936188,100.833054 444.094391,98.834595 440.646210,98.969353 
	C439.326477,99.020927 439.032959,98.153824 439.018036,97.025017 
	C439.003204,95.900696 439.258362,94.950027 440.585510,95.060303 
	C442.993500,95.260406 446.702179,93.723190 447.531036,95.843506 
	C448.787048,99.056633 449.213715,103.486023 447.398010,106.468674 
	C444.936035,110.512985 433.448212,107.737213 430.896729,102.896149 
	C428.803436,98.924370 429.384125,91.778999 432.049866,88.707039 
	C435.010590,85.295128 440.985748,84.080643 445.812073,85.877762 
	C446.642639,86.187004 447.988708,85.922096 447.316437,87.563072 
	C446.889160,88.605972 446.808167,89.919014 445.049469,89.464279 
	C442.623352,88.836990 440.091888,88.370903 437.816986,89.768250 
	C434.176208,92.004555 433.521057,95.453392 434.476410,99.339485 
	C435.544434,103.683907 438.637421,104.522064 442.871338,103.516190 
z"/>
<path fill="#2E86BF" opacity="1.000000" stroke="none" 
	d="
M416.543945,68.872559 
	C406.964996,71.734840 402.357422,68.405426 402.315735,59.003284 
	C402.301727,55.839848 402.379974,52.674816 402.302521,49.513290 
	C402.254059,47.536449 403.143860,46.949593 405.014648,46.951107 
	C407.031403,46.952744 407.028473,48.177185 407.025696,49.577469 
	C407.018097,53.406990 407.052185,57.236740 407.021667,61.066017 
	C406.998596,63.961327 407.958740,65.850441 411.239685,65.996117 
	C414.700500,66.149796 416.089386,64.418831 416.101685,61.194813 
	C416.116272,57.365448 416.170135,53.535336 416.112091,49.706989 
	C416.084839,47.911247 416.563904,46.965508 418.608856,46.934578 
	C420.721466,46.902622 421.072052,47.935291 421.040833,49.689510 
	C420.969757,53.684254 421.108093,57.684574 420.964752,61.675568 
	C420.857635,64.656960 419.527924,67.095947 416.543945,68.872559 
z"/>
<path fill="#2782BD" opacity="1.000000" stroke="none" 
	d="
M243.422363,85.227219 
	C246.149109,91.940445 248.513168,98.480255 250.853226,105.028641 
	C251.131424,105.807137 251.278427,106.632515 251.509262,107.525269 
	C248.686813,108.722099 246.583771,108.140076 246.174332,104.925911 
	C245.718201,101.345123 243.225159,102.003586 240.989212,102.027702 
	C238.787643,102.051437 236.190414,101.252975 235.891754,104.965843 
	C235.712402,107.195755 234.192673,108.820381 231.817291,107.845367 
	C229.336823,106.827225 231.324982,105.040192 231.757767,103.725883 
	C233.361343,98.855759 235.472015,94.127777 236.736069,89.178810 
	C237.690796,85.440948 239.652435,84.449234 243.422363,85.227219 
z"/>
<path fill="#707072" opacity="1.000000" stroke="none" 
	d="
M101.019638,16.994659 
	C97.986267,16.787645 96.821701,14.055185 94.963036,12.332645 
	C87.806053,5.699787 80.043243,4.187472 71.773125,8.270764 
	C65.712578,11.263102 63.298702,16.619877 62.781113,23.486122 
	C62.394169,24.026497 62.197701,24.255043 61.994915,24.777390 
	C60.816673,25.822803 59.806137,25.817472 58.904919,24.349968 
	C59.501179,21.188730 60.057308,18.456532 60.674126,15.357809 
	C64.828575,6.833004 71.429428,2.194582 80.557533,2.425171 
	C90.170639,2.668012 97.600281,7.235411 102.663788,15.933025 
	C103.012383,16.042582 103.049858,16.021597 103.049866,15.999629 
	C102.582886,16.400988 101.973122,16.471792 101.178726,16.841423 
	C100.953011,17.038805 100.999474,17.012243 101.019638,16.994659 
z"/>
<path fill="#5E5E60" opacity="1.000000" stroke="none" 
	d="
M96.309303,47.122116 
	C99.595871,47.047752 102.415909,47.022968 105.235779,47.035282 
	C106.545174,47.040997 107.920441,46.856117 107.957611,48.922604 
	C107.993553,50.920605 106.771988,50.966331 105.365799,50.959831 
	C104.204712,50.954464 103.041222,51.023293 101.882874,50.970226 
	C100.181717,50.892296 99.582008,51.685196 99.551880,53.339062 
	C99.518570,55.167271 100.042068,56.195240 102.067833,56.030167 
	C103.055870,55.949654 104.058044,56.062160 105.052162,56.032211 
	C106.494576,55.988750 107.136078,56.578564 107.106033,58.092693 
	C107.073921,59.711185 106.148315,59.984913 104.851112,59.958359 
	C104.022179,59.941387 103.185226,60.038498 102.364372,59.957600 
	C100.155617,59.739925 99.568604,60.801525 99.529846,62.869698 
	C99.486610,65.177322 100.165001,66.304222 102.621933,66.041542 
	C103.769043,65.918900 104.941833,66.043495 106.102989,66.043297 
	C107.285820,66.043091 107.895271,66.540131 107.941750,67.804749 
	C107.994453,69.239067 107.435997,69.723167 105.988060,69.991211 
	C96.719345,71.707001 94.857582,70.325310 95.087387,60.833523 
	C95.197388,56.289669 93.965790,51.638454 96.309303,47.122116 
z"/>
<path fill="#2782BD" opacity="1.000000" stroke="none" 
	d="
M371.027557,96.910149 
	C369.648621,98.479607 368.063751,98.059410 366.642090,97.962593 
	C364.102081,97.789627 363.591248,98.978310 363.599030,101.222939 
	C363.606750,103.454041 364.523834,104.182915 366.593750,104.000961 
	C367.583893,103.913933 368.590912,104.038788 369.586456,103.989532 
	C371.178467,103.910751 372.076874,104.380821 372.004791,106.217972 
	C371.938507,107.906837 370.920898,108.018761 369.679504,108.000954 
	C369.513214,107.998566 369.346100,107.995445 369.180542,108.008148 
	C358.984833,108.791077 358.984833,108.791222 358.984772,98.566078 
	C358.984772,97.068764 358.984802,95.571457 358.984894,94.074142 
	C358.985413,83.958427 359.161224,83.838020 369.550964,84.966850 
	C371.064850,85.131325 372.081604,85.275375 372.005920,87.166481 
	C371.939789,88.817970 371.007721,89.040390 369.723816,89.001633 
	C369.391479,88.991600 369.035614,88.928978 368.729462,89.020554 
	C366.884399,89.572426 363.591461,87.367950 363.673065,91.620384 
	C363.746704,95.459633 366.715576,93.729729 368.479492,93.915810 
	C370.243347,94.101891 371.397186,94.387680 371.027557,96.910149 
z"/>
<path fill="#569DCB" opacity="1.000000" stroke="none" 
	d="
M29.587849,45.199738 
	C28.161215,42.543922 27.102831,40.127308 25.953773,37.353313 
	C26.345619,22.455448 31.186039,15.494703 43.509037,12.579556 
	C48.956398,11.290919 54.579987,11.161256 59.818726,14.634088 
	C58.829216,16.650219 57.650536,16.790396 55.505695,16.434259 
	C47.940254,15.178061 40.430859,14.933091 34.446960,21.282787 
	C28.546227,27.544231 27.823055,33.318932 32.107285,43.432137 
	C32.396687,45.658981 31.203447,45.585049 29.587849,45.199738 
z"/>
<path fill="#2380BC" opacity="1.000000" stroke="none" 
	d="
M315.902161,69.978500 
	C313.369507,69.871788 313.768066,68.276459 313.759796,67.042854 
	C313.721924,61.402744 313.827484,55.760483 313.707703,50.122688 
	C313.658386,47.801586 314.366882,46.714622 316.800476,46.983410 
	C319.086182,47.235859 321.390137,46.717201 323.695251,47.465572 
	C327.089203,48.567440 329.029144,50.566631 329.018341,54.278553 
	C329.006287,58.410702 326.748474,61.144661 322.975098,61.495544 
	C318.723785,61.890862 317.310455,63.548031 317.997253,67.567657 
	C318.191254,68.702866 318.094604,69.986565 315.902161,69.978500 
z"/>
<path fill="#207EBB" opacity="1.000000" stroke="none" 
	d="
M304.014160,66.014572 
	C305.862366,66.319893 308.053741,65.116180 308.093170,67.975098 
	C308.132904,70.853775 305.946167,69.911423 304.523987,69.966316 
	C295.752533,70.304893 295.751251,70.274117 295.748810,61.640057 
	C295.748169,59.316753 295.638702,56.986855 295.778076,54.671959 
	C295.923981,52.248722 294.546204,48.771793 296.496521,47.632439 
	C299.412140,45.929138 303.261444,47.099678 306.712311,47.085938 
	C308.110229,47.080368 308.068420,48.219837 308.090881,49.224678 
	C308.119049,50.483456 307.452759,50.989540 306.260864,50.984493 
	C304.933380,50.978870 303.602112,51.065044 302.279175,50.991238 
	C300.520264,50.893101 299.968414,51.730362 300.017578,53.376125 
	C300.060272,54.805939 300.173492,55.670914 301.998718,56.106369 
	C304.000244,56.583889 307.857605,53.911129 307.773041,58.144279 
	C307.703247,61.636837 304.168854,59.712166 302.236328,59.907528 
	C299.996765,60.133934 300.174194,61.365406 299.995392,62.908924 
	C299.655151,65.845848 301.271515,66.249084 304.014160,66.014572 
z"/>
<path fill="#5E5E60" opacity="1.000000" stroke="none" 
	d="
M167.647125,69.911270 
	C156.727768,69.990623 156.727768,69.990623 156.727859,59.709087 
	C156.727875,58.043720 156.622803,56.370117 156.752655,54.714939 
	C156.943298,52.284752 155.513367,48.797729 157.483139,47.651760 
	C160.412048,45.947803 164.273666,47.133610 167.737366,47.098545 
	C168.781815,47.087967 169.078476,47.866344 169.091248,48.776993 
	C169.105804,49.816189 169.046951,50.841919 167.653961,50.897877 
	C166.157379,50.957989 164.655701,51.021141 163.160919,50.963165 
	C161.309555,50.891361 160.994339,51.923965 161.005386,53.472836 
	C161.016113,54.978634 161.266327,55.828640 163.103027,56.087204 
	C165.080978,56.365643 168.627136,54.457043 168.744736,57.811180 
	C168.893967,62.067539 164.985840,59.477749 162.982178,59.874493 
	C160.660278,60.334251 161.170441,61.742779 161.020157,63.147728 
	C160.793106,65.270248 161.614075,65.942337 163.795609,66.120316 
	C165.813675,66.284958 169.898987,64.058296 168.881805,69.303665 
	C168.837143,69.533943 168.379074,69.684029 167.647125,69.911270 
z"/>
<path fill="#207EBB" opacity="1.000000" stroke="none" 
	d="
M169.978302,97.997513 
	C167.196381,97.726357 165.881821,98.231651 165.942719,101.120407 
	C165.997711,103.730194 167.122849,104.207642 169.278091,104.016418 
	C170.265213,103.928825 171.267685,104.023254 172.263077,104.017242 
	C173.455963,104.010040 174.064667,104.528778 174.102295,105.781403 
	C174.143295,107.145821 173.777390,108.009972 172.208755,107.991371 
	C169.388611,107.957924 166.567413,107.952927 163.747406,107.990669 
	C161.786621,108.016907 161.748642,106.714493 161.750702,105.310234 
	C161.759247,99.503082 161.813019,93.695038 161.725327,87.889206 
	C161.693817,85.802879 162.349045,84.857941 164.556747,84.981445 
	C167.037827,85.120255 169.532761,85.037392 172.021194,85.009186 
	C173.428864,84.993240 174.131104,85.494125 174.114853,87.036942 
	C174.098328,88.606674 173.303192,89.038490 171.946426,88.986092 
	C171.615219,88.973297 171.261719,88.916267 170.954544,89.004776 
	C169.122894,89.532478 165.878708,87.371422 166.023666,91.683739 
	C166.157242,95.658112 169.135437,93.482750 170.836411,93.962425 
	C172.131149,94.327553 173.969833,93.480614 173.975388,95.956657 
	C173.981857,98.839134 171.838364,97.727852 169.978302,97.997513 
z"/>
<path fill="#AAAAAB" opacity="1.000000" stroke="none" 
	d="
M10.099566,52.741760 
	C6.588511,64.939125 9.170776,72.080391 19.065708,76.928604 
	C24.701639,81.104774 30.145000,85.110550 32.169746,92.401451 
	C32.436607,94.660881 31.189083,94.590790 29.536995,94.222397 
	C26.628990,86.715515 20.873905,82.630783 14.226835,78.951927 
	C13.557984,78.670563 13.202239,78.568710 12.671930,78.264420 
	C3.896115,72.002182 4.226358,57.152859 9.489393,48.860626 
	C11.460166,49.816124 10.035413,51.162861 10.099566,52.741760 
z"/>
<path fill="#2681BD" opacity="1.000000" stroke="none" 
	d="
M495.738037,63.924362 
	C495.736938,59.113216 495.834534,54.788200 495.698761,50.470524 
	C495.622437,48.043678 496.163574,46.707031 498.960846,46.958740 
	C501.269440,47.166466 503.611450,47.013130 505.938538,47.000668 
	C507.261505,46.993580 508.153198,47.302433 508.085114,48.943794 
	C508.024475,50.405197 507.435852,51.075382 505.982483,50.995701 
	C505.651245,50.977535 505.296021,50.925522 504.988953,51.015636 
	C503.160004,51.552433 499.910034,49.347088 500.032532,53.673496 
	C500.145569,57.667313 503.142395,55.463615 504.837097,55.974056 
	C506.094696,56.352825 508.062317,55.370770 507.947418,57.929810 
	C507.846802,60.170994 506.192261,59.788250 504.737885,60.048290 
	C502.986877,60.361359 500.324677,58.532585 499.959106,62.423504 
	C499.565216,66.615379 502.147797,65.934029 504.612671,66.041054 
	C505.761475,66.090935 507.588898,65.279335 507.799683,67.305275 
	C508.005890,69.286636 506.398438,69.704353 504.819183,69.845192 
	C503.661987,69.948395 502.475311,69.834770 501.338226,70.030067 
	C496.761292,70.816139 494.946777,68.936218 495.738037,63.924362 
z"/>
<path fill="#2782BD" opacity="1.000000" stroke="none" 
	d="
M216.861679,96.082405 
	C217.371338,103.117386 218.883682,104.395538 225.161423,103.989716 
	C226.007416,103.935028 227.710297,101.872093 228.071091,104.629562 
	C228.285507,106.268349 227.488281,106.818230 225.984161,107.354706 
	C221.637482,108.905083 216.343719,107.564972 213.927109,104.009109 
	C211.021164,99.733215 211.344238,92.351074 214.603546,88.552658 
	C217.542908,85.127113 223.429489,83.992470 227.331299,85.971405 
	C228.407181,86.517059 228.835724,86.957634 228.396759,88.205048 
	C227.840698,89.785271 227.263550,89.902115 225.517120,89.508316 
	C219.538223,88.160118 217.775177,89.580124 216.861679,96.082405 
z"/>
<path fill="#2782BD" opacity="1.000000" stroke="none" 
	d="
M429.924072,57.237492 
	C430.121185,65.278427 431.394043,66.426460 438.813721,65.860588 
	C439.535400,65.805550 440.716827,64.411644 440.999695,66.298241 
	C441.165283,67.402451 441.344543,68.500801 439.786163,69.122864 
	C436.103394,70.592957 432.611938,70.284981 429.308960,68.276276 
	C424.985352,65.646889 423.545654,57.768879 426.297180,52.467243 
	C428.785645,47.672443 434.890900,45.701141 440.018402,47.887726 
	C441.310028,48.438534 442.041290,48.809994 441.341034,50.353985 
	C440.796448,51.554871 440.451508,51.942028 438.834137,51.641895 
	C432.386261,50.445374 431.303925,51.216095 429.924072,57.237492 
z"/>
<path fill="#606062" opacity="1.000000" stroke="none" 
	d="
M90.160065,48.439606 
	C90.443718,50.998344 90.191780,52.473289 87.069206,51.293255 
	C84.560883,50.345345 81.660835,50.525887 80.036339,53.335968 
	C78.170708,56.563175 78.343658,60.015392 79.746284,63.343552 
	C81.065025,66.472687 83.961937,65.844200 86.596466,66.095665 
	C87.694099,66.200424 89.456787,63.893822 90.035133,66.693893 
	C90.562271,69.246048 88.315170,69.307037 86.937019,69.624023 
	C82.789032,70.578064 78.740776,69.888893 76.222992,66.272736 
	C73.163795,61.878986 73.024200,56.869358 75.559067,52.130520 
	C77.749161,48.036213 81.643829,46.759979 86.071426,47.108143 
	C87.359024,47.209393 88.606705,47.818211 90.160065,48.439606 
z"/>
<path fill="#A5CBE4" opacity="1.000000" stroke="none" 
	d="
M43.254837,117.659531 
	C36.653103,116.056068 30.153229,117.144302 23.715923,117.061050 
	C16.207636,116.963943 10.904437,113.245964 7.066569,107.092476 
	C6.165272,105.647369 5.320627,103.783691 7.146293,102.668839 
	C9.362707,101.315376 9.297228,103.971504 10.004528,104.946388 
	C14.284218,110.845123 19.463411,114.261330 27.266491,113.164505 
	C32.310867,112.455460 37.535271,112.579018 42.801727,114.587807 
	C43.595592,115.605499 43.793507,116.416870 43.254837,117.659531 
z"/>
<path fill="#5E5E60" opacity="1.000000" stroke="none" 
	d="
M203.737732,54.057827 
	C204.247498,51.443710 202.350037,48.066216 204.946213,47.351753 
	C208.164505,46.466084 211.834671,47.103218 215.297195,47.300659 
	C216.269272,47.356091 216.072983,48.605282 216.054001,49.389008 
	C216.011475,51.143303 214.630936,50.776955 213.532608,50.978508 
	C211.712280,51.312553 209.389008,49.929325 208.125504,52.054775 
	C206.618423,54.589928 208.522308,56.795952 212.065491,57.050838 
	C213.488281,57.153187 215.702286,56.114723 215.770432,58.923084 
	C215.838623,61.733578 213.573105,61.113480 212.199905,60.891113 
	C207.826813,60.182983 207.839752,62.736629 207.906967,65.849594 
	C207.939011,67.333740 209.126602,69.829536 205.955948,69.923561 
	C202.782471,70.017662 203.833710,67.559143 203.780045,66.000000 
	C203.648819,62.187305 203.737885,58.367031 203.737732,54.057827 
z"/>
<path fill="#2E86BF" opacity="1.000000" stroke="none" 
	d="
M485.931580,70.026535 
	C477.972900,70.024536 477.972778,70.024536 477.971649,62.392788 
	C477.971069,58.409515 477.920563,54.425278 477.997009,50.443478 
	C478.025269,48.969997 477.254333,47.000343 480.097534,46.941521 
	C483.070648,46.880005 482.650635,48.844559 482.663086,50.628288 
	C482.686249,53.947517 482.958099,57.298523 482.599213,60.578617 
	C482.127167,64.893013 483.484314,66.825264 487.974670,66.004303 
	C488.774261,65.858109 489.629242,66.010239 490.458466,66.031639 
	C491.797729,66.066200 492.001129,66.937286 492.005676,68.040245 
	C492.010406,69.184113 491.681519,69.968430 490.385834,69.985458 
	C489.058533,70.002899 487.731171,70.013168 485.931580,70.026535 
z"/>
<path fill="#2E86BF" opacity="1.000000" stroke="none" 
	d="
M259.677979,96.963516 
	C258.915009,102.277687 260.259521,105.029236 265.837616,104.032028 
	C267.119080,103.802948 268.931061,103.436974 269.021454,105.898430 
	C269.110321,108.318840 267.488464,107.936089 266.030426,108.028488 
	C254.968719,108.729599 254.968506,108.734917 254.969879,97.523911 
	C254.970291,94.206871 254.980881,90.889809 254.974457,87.572792 
	C254.971756,86.176804 254.981216,84.962585 256.985718,84.957146 
	C258.862579,84.952049 259.727966,85.568382 259.681488,87.520027 
	C259.610504,90.503510 259.672272,93.490150 259.677979,96.963516 
z"/>
<path fill="#5E5E60" opacity="1.000000" stroke="none" 
	d="
M144.044601,47.027328 
	C146.517761,47.025612 148.514572,47.038391 150.511047,47.017475 
	C151.940857,47.002499 153.170990,47.069805 153.090439,49.070114 
	C153.026230,50.664589 152.143631,51.145405 150.840958,50.933159 
	C147.134674,50.329300 146.871246,52.449844 146.995865,55.307308 
	C147.162460,59.126972 147.067322,62.959816 147.018829,66.786171 
	C147.001205,68.176079 147.486145,69.878174 145.056747,69.967041 
	C142.326630,70.066917 142.753815,68.189499 142.740936,66.591599 
	C142.707413,62.432129 142.625183,58.268646 142.768372,54.113865 
	C142.849167,51.769386 142.112839,50.766663 139.665115,50.915909 
	C138.177841,51.006588 135.985809,51.596893 136.219604,48.787910 
	C136.448898,46.032784 138.660858,47.268238 140.079025,47.058025 
	C141.218536,46.889122 142.403381,47.026134 144.044601,47.027328 
z"/>
<path fill="#207EBB" opacity="1.000000" stroke="none" 
	d="
M376.872498,106.786209 
	C376.774231,100.496933 376.707397,94.683479 376.784943,88.871948 
	C376.806152,87.279945 375.888062,84.917686 379.059662,85.019516 
	C381.899078,85.110687 380.945465,87.245453 380.989105,88.661598 
	C381.106689,92.477943 381.215454,96.311760 380.975525,100.116432 
	C380.786957,103.106361 381.614258,104.510696 384.796387,104.030350 
	C385.932068,103.858910 387.117096,104.020157 388.279602,104.018982 
	C389.470276,104.017784 390.069733,104.540306 390.106018,105.793282 
	C390.146057,107.174263 389.746277,108.111717 388.195007,107.971390 
	C384.455170,107.633087 380.616943,108.853493 376.872498,106.786209 
z"/>
<path fill="#818182" opacity="1.000000" stroke="none" 
	d="
M58.676338,24.150768 
	C59.446705,24.817877 60.283340,25.002159 61.548767,24.984230 
	C60.156364,35.225872 50.026276,45.585152 35.470722,42.954826 
	C34.369198,42.159134 34.213177,41.346409 34.705204,40.048302 
	C47.545513,40.869099 54.123058,36.594345 58.676338,24.150768 
z"/>
<path fill="#207EBB" opacity="1.000000" stroke="none" 
	d="
M449.880402,47.092655 
	C451.923218,54.039948 450.616608,61.016445 451.018219,67.937523 
	C451.101990,69.380836 450.459717,70.014503 448.956482,69.999825 
	C447.531433,69.985916 446.770477,69.509132 446.773193,68.011490 
	C446.784637,61.683094 446.796112,55.354595 446.770355,49.026291 
	C446.762512,47.104614 447.956512,46.926819 449.880402,47.092655 
z"/>
<path fill="#207EBB" opacity="1.000000" stroke="none" 
	d="
M396.017731,85.094681 
	C398.467957,84.748756 399.077667,85.691162 399.054596,87.585075 
	C398.981445,93.579208 399.030426,99.574791 399.023865,105.569809 
	C399.022583,106.757118 399.072754,107.998093 397.324707,107.973152 
	C396.151306,107.956413 394.762695,108.076859 394.830261,106.382362 
	C395.112305,99.308624 393.805573,92.179321 396.017731,85.094681 
z"/>
<path fill="#207EBB" opacity="1.000000" stroke="none" 
	d="
M207.033829,102.841446 
	C207.022797,104.321037 207.010529,105.319206 207.000992,106.317406 
	C206.984680,108.026093 205.784882,107.973961 204.581543,107.977882 
	C203.326401,107.981972 202.778717,107.331123 202.777557,106.144089 
	C202.771347,99.820297 202.779724,93.496490 202.765976,87.172729 
	C202.762985,85.797791 203.240845,85.061234 204.770798,84.999283 
	C206.569366,84.926445 207.056854,85.746864 207.040695,87.382477 
	C206.991425,92.374535 207.029648,97.367462 207.033829,102.841446 
z"/>
<path fill="#207EBB" opacity="1.000000" stroke="none" 
	d="
M101.033905,103.798531 
	C100.868149,105.919556 101.774780,108.231201 98.628937,107.979797 
	C95.839516,107.756882 96.821358,105.610939 96.792435,104.193062 
	C96.683800,98.868065 96.725601,93.539284 96.768837,88.212387 
	C96.780151,86.819061 96.316872,85.120567 98.727150,85.000168 
	C101.483627,84.862488 101.012650,86.749458 101.020851,88.340416 
	C101.046577,93.334579 101.032555,98.328941 101.033905,103.798531 
z"/>
<path fill="#CACACB" opacity="1.000000" stroke="none" 
	d="
M23.949230,124.950874 
	C24.189013,122.567566 23.404072,120.532364 24.485577,118.631020 
	C26.750813,118.768509 25.855291,120.509003 26.004589,121.599762 
	C26.972721,128.672882 28.666599,135.339111 35.666138,139.032120 
	C37.090782,139.783768 37.149815,140.712875 36.387714,141.833603 
	C35.771877,142.739227 34.647808,143.252991 33.805027,142.501114 
	C28.649944,137.902023 23.335354,133.342209 23.949230,124.950874 
z"/>
<path fill="#80B6D8" opacity="1.000000" stroke="none" 
	d="
M19.786613,76.889633 
	C19.404297,76.975761 19.434471,76.996414 19.448784,77.008438 
	C18.329674,74.594261 19.326052,73.202599 21.499027,71.929924 
	C25.653885,69.496513 29.181026,66.405113 30.549782,61.149277 
	C31.858686,60.317642 32.663273,60.794991 33.686890,61.738731 
	C32.156712,69.531403 26.969337,73.917831 19.786613,76.889633 
z"/>
<path fill="#3F90C4" opacity="1.000000" stroke="none" 
	d="
M81.605453,28.109657 
	C82.027939,29.046658 82.037102,29.910303 82.051048,31.208460 
	C75.067772,32.035118 69.681808,28.702154 64.494980,24.073204 
	C64.135078,19.959322 65.979736,20.336956 68.272957,22.228615 
	C72.061775,25.353973 75.805176,28.499722 81.605453,28.109657 
z"/>
<path fill="#9B9B9C" opacity="1.000000" stroke="none" 
	d="
M10.370914,52.863255 
	C8.288611,51.967022 10.065969,50.624195 9.848095,49.049217 
	C12.890263,42.789021 18.211449,39.894260 24.616163,37.987923 
	C25.831408,40.714119 24.377296,41.856503 22.092432,42.757965 
	C17.149660,44.708061 13.396800,48.133514 10.370914,52.863255 
z"/>
<path fill="#B7B7B7" opacity="1.000000" stroke="none" 
	d="
M29.163601,94.367371 
	C30.042280,93.756195 30.919804,93.544815 32.007965,93.046738 
	C34.991009,98.737473 33.342575,104.329384 30.665964,109.797684 
	C30.133886,110.884705 29.759781,112.431442 27.796654,111.421036 
	C25.849539,110.418877 26.948961,109.282578 27.434235,108.159897 
	C29.294098,103.857147 30.981001,99.541077 29.163601,94.367371 
z"/>
<path fill="#6BA9D2" opacity="1.000000" stroke="none" 
	d="
M34.080490,61.598763 
	C33.115620,61.721767 32.279037,61.454384 31.131428,61.058968 
	C31.505659,55.742615 31.429390,50.630356 29.260530,45.341774 
	C30.063810,44.758121 30.908022,44.555706 31.946911,44.077003 
	C32.141590,43.800720 32.571705,43.891079 32.780907,43.958321 
	C33.897427,49.717628 36.323017,55.302010 34.080490,61.598763 
z"/>
<path fill="#B7B7B7" opacity="1.000000" stroke="none" 
	d="
M17.841595,98.864990 
	C15.454166,99.232094 13.542621,100.904205 10.843882,99.059029 
	C14.992355,96.055359 19.718435,95.601997 24.108313,94.348671 
	C24.409397,94.262711 25.192656,95.054619 25.376902,95.571785 
	C25.617493,96.247101 25.116180,96.749199 24.377647,96.957901 
	C22.321447,97.538971 20.274797,98.153824 17.841595,98.864990 
z"/>
<path fill="#B8D6E9" opacity="1.000000" stroke="none" 
	d="
M43.203781,118.279160 
	C43.009510,117.219376 43.019493,116.429550 43.060890,115.242821 
	C45.529903,114.768585 47.331417,116.525101 49.555492,117.090332 
	C51.216564,117.512474 52.386826,118.445938 51.054729,120.238983 
	C50.047035,121.595352 48.852345,122.772751 47.011173,121.067726 
	C45.946072,120.081390 44.617840,119.379189 43.203781,118.279160 
z"/>
<path fill="#B7B7B7" opacity="1.000000" stroke="none" 
	d="
M21.735142,88.874199 
	C17.989061,90.243782 14.613612,92.635208 10.515135,90.937653 
	C14.117220,89.301025 17.375319,86.219803 21.735142,88.874199 
z"/>
<path fill="#A5CBE4" opacity="1.000000" stroke="none" 
	d="
M12.083612,78.047073 
	C12.892906,78.173782 13.283006,78.304359 13.790206,78.614761 
	C12.495767,81.092316 11.084229,83.390038 9.431799,85.920731 
	C8.395152,86.550507 7.787476,86.202759 7.075597,85.321472 
	C7.468641,81.966225 7.520149,78.608849 12.083612,78.047073 
z"/>
<path fill="#E8E8E8" opacity="1.000000" stroke="none" 
	d="
M70.018074,141.127640 
	C69.529457,143.305389 71.064072,146.619949 68.553902,146.523941 
	C65.603691,146.411133 67.313148,143.056625 67.083473,141.156219 
	C66.928261,139.871979 66.259468,137.655365 68.296844,137.408737 
	C70.672943,137.121124 69.734550,139.406418 70.018074,141.127640 
z"/>
<path fill="#B7B7B7" opacity="1.000000" stroke="none" 
	d="
M25.530552,102.600586 
	C23.452843,107.304703 19.147175,106.060707 15.444679,106.600288 
	C17.910700,103.202789 21.834564,103.355774 25.530552,102.600586 
z"/>
<path fill="#B8D6E9" opacity="1.000000" stroke="none" 
	d="
M30.097919,128.750641 
	C31.849974,125.197372 33.836464,122.130013 37.373333,120.419174 
	C35.925140,124.089668 34.972950,128.143356 30.097919,128.750641 
z"/>
<path fill="#E8E8E8" opacity="1.000000" stroke="none" 
	d="
M85.983154,140.181564 
	C85.373192,142.418396 87.306778,146.059906 84.768585,145.869827 
	C81.530998,145.627396 83.486694,141.812561 83.064690,139.586304 
	C82.886978,138.648834 83.044815,137.410400 84.339455,137.322479 
	C86.048065,137.206467 85.870605,138.642288 85.983154,140.181564 
z"/>
<path fill="#E8E8E8" opacity="1.000000" stroke="none" 
	d="
M77.558723,139.618774 
	C77.885513,142.144852 78.750908,144.518707 77.134567,146.558182 
	C76.786636,146.997192 75.716423,146.891312 75.454124,146.151718 
	C74.539803,143.573685 75.039749,140.901947 75.156265,138.266190 
	C75.190208,137.498352 75.881989,137.048935 76.552452,137.150024 
	C78.016060,137.370743 76.007660,138.987274 77.558723,139.618774 
z"/>
<path fill="#F7FAFB" opacity="1.000000" stroke="none" 
	d="
M108.396667,117.448593 
	C109.023476,117.346931 109.405777,117.300713 109.643280,117.464485 
	C111.176262,118.521545 112.650757,119.679893 111.426102,121.819962 
	C111.010551,122.546135 110.064957,123.120682 109.376610,122.461960 
	C108.027153,121.170570 106.219650,119.818398 108.396667,117.448593 
z"/>
<path fill="#DDEBF4" opacity="1.000000" stroke="none" 
	d="
M39.895111,131.856384 
	C36.264668,129.683655 39.313622,128.544662 40.414589,127.171799 
	C41.018780,126.418381 42.242382,125.682381 42.733658,127.045090 
	C43.542458,129.288544 42.106110,130.739609 39.895111,131.856384 
z"/>
<path fill="#E8E8E8" opacity="1.000000" stroke="none" 
	d="
M60.716366,134.485962 
	C62.147903,135.765564 63.930927,136.901550 62.152096,138.569244 
	C61.120331,139.536530 59.684551,139.063721 58.900108,137.680038 
	C57.891006,135.900070 57.934345,134.564056 60.716366,134.485962 
z"/>
<path fill="#DDEBF4" opacity="1.000000" stroke="none" 
	d="
M70.000946,151.292999 
	C72.789696,152.768417 71.610733,154.310638 70.256256,155.577499 
	C69.450760,156.330887 68.244453,155.911270 67.732498,155.007874 
	C66.555222,152.930511 68.353676,152.194244 70.000946,151.292999 
z"/>
<path fill="#E8E8E8" opacity="1.000000" stroke="none" 
	d="
M70.271210,132.458389 
	C68.908546,130.867645 68.186836,129.369385 70.161728,128.253616 
	C71.105339,127.720505 72.122551,128.414764 72.523232,129.355728 
	C73.313362,131.211288 72.845749,132.500580 70.271210,132.458389 
z"/>
<path fill="#DDEBF4" opacity="1.000000" stroke="none" 
	d="
M62.776951,148.797058 
	C65.069305,147.871979 66.004906,148.774933 65.447861,150.665329 
	C65.108406,151.817352 63.992897,153.212463 62.480728,152.494446 
	C60.429104,151.520294 61.353565,150.176514 62.776951,148.797058 
z"/>
<path fill="#F7FAFB" opacity="1.000000" stroke="none" 
	d="
M98.683632,139.011932 
	C97.051781,140.179779 95.473068,140.635483 94.347733,138.950623 
	C93.743629,138.046173 94.326950,136.902954 95.298576,136.584885 
	C97.103859,135.993881 98.392998,136.707794 98.683632,139.011932 
z"/>
<path fill="#E8E8E8" opacity="1.000000" stroke="none" 
	d="
M77.966942,128.089645 
	C79.087570,129.972748 78.859245,131.255127 77.006470,131.794495 
	C75.886887,132.120422 75.049606,131.451141 75.087578,130.264755 
	C75.139900,128.629715 75.188599,126.763344 77.966942,128.089645 
z"/>
<path fill="#DDEBF4" opacity="1.000000" stroke="none" 
	d="
M57.849632,143.301056 
	C59.485382,143.052811 61.350849,142.911270 60.717628,145.225449 
	C60.255783,146.913300 58.510010,147.522736 57.135708,146.721817 
	C55.212265,145.600876 57.280682,144.627365 57.849632,143.301056 
z"/>
<path fill="#F7FAFB" opacity="1.000000" stroke="none" 
	d="
M103.437988,121.117813 
	C105.664116,121.118729 107.055374,121.737976 106.717171,123.953346 
	C106.610893,124.649452 105.837013,125.073914 105.207924,124.792473 
	C103.705490,124.120308 101.566994,123.683617 103.437988,121.117813 
z"/>
<path fill="#DDEBF4" opacity="1.000000" stroke="none" 
	d="
M84.123817,156.530579 
	C82.329300,155.883438 80.686539,155.170044 81.707260,153.054535 
	C82.070099,152.302536 83.018051,151.832047 83.783875,152.245499 
	C85.701828,153.280930 85.145851,154.875519 84.123817,156.530579 
z"/>
<path fill="#DDEBF4" opacity="1.000000" stroke="none" 
	d="
M51.044514,124.944092 
	C51.806881,122.632942 53.151142,122.557762 54.536980,123.695259 
	C55.210091,124.247757 54.985203,125.319618 54.347610,125.921761 
	C53.049263,127.147919 51.766304,127.564537 51.044514,124.944092 
z"/>
<path fill="#F7FAFB" opacity="1.000000" stroke="none" 
	d="
M104.306900,134.405624 
	C104.147888,132.194122 105.035988,131.498550 106.579201,132.680023 
	C107.418968,133.322937 108.361542,134.648499 107.443672,135.723312 
	C105.948395,137.474289 105.302795,135.522369 104.306900,134.405624 
z"/>
<path fill="#F7FAFB" opacity="1.000000" stroke="none" 
	d="
M113.908997,129.944000 
	C115.306923,131.111496 115.948135,132.088028 114.247864,133.131088 
	C112.765747,134.040344 111.966751,132.733429 111.623978,131.850449 
	C110.918152,130.032257 111.542084,128.974503 113.908997,129.944000 
z"/>
<path fill="#F7FAFB" opacity="1.000000" stroke="none" 
	d="
M108.891144,144.504059 
	C108.867668,146.070770 109.344101,147.709549 107.385124,147.724121 
	C106.127510,147.733475 105.900772,146.530930 106.122955,145.594894 
	C106.439606,144.260818 106.694260,142.322144 108.891144,144.504059 
z"/>
<path fill="#E8E8E8" opacity="1.000000" stroke="none" 
	d="
M83.593559,129.689453 
	C82.630280,130.788330 84.407951,132.912323 82.035637,132.916779 
	C81.589600,132.917618 80.744690,132.514496 80.753990,132.480347 
	C81.147171,131.036957 81.404198,129.480530 82.177742,128.252930 
	C82.501274,127.739487 83.676666,128.287354 83.593559,129.689453 
z"/>
<path fill="#F7FAFB" opacity="1.000000" stroke="none" 
	d="
M87.835709,151.153625 
	C86.872192,149.195129 87.666367,148.376556 89.311111,148.397339 
	C89.765282,148.403091 90.582657,149.215881 90.590828,149.669922 
	C90.620567,151.323471 89.791084,152.100739 87.835709,151.153625 
z"/>
<path fill="#E8E8E8" opacity="1.000000" stroke="none" 
	d="
M64.165199,133.737000 
	C64.067291,132.139832 64.228973,130.909180 65.896896,131.312973 
	C67.108932,131.606400 67.146210,132.772461 66.820557,133.703812 
	C66.281425,135.245682 65.303429,135.152496 64.165199,133.737000 
z"/>
<path fill="#E8E8E8" opacity="1.000000" stroke="none" 
	d="
M115.451820,146.344818 
	C113.284821,147.078522 112.987183,145.938263 113.163429,144.473297 
	C113.272888,143.563370 113.915756,143.011139 114.825470,143.310242 
	C116.288353,143.791260 115.942299,144.982895 115.451820,146.344818 
z"/>
<path fill="#DDEBF4" opacity="1.000000" stroke="none" 
	d="
M75.947723,158.235886 
	C75.648285,156.527817 75.577217,155.032364 75.506149,153.536926 
	C76.590935,155.120499 78.973953,156.574463 75.947723,158.235886 
z"/>
<path fill="#DDEBF4" opacity="1.000000" stroke="none" 
	d="
M48.844475,133.797119 
	C48.322731,135.023514 47.732883,136.096725 46.640625,135.406433 
	C45.752304,134.845016 45.796722,133.522797 46.440609,132.782959 
	C47.455299,131.617065 48.411541,131.937347 48.844475,133.797119 
z"/>
<path fill="#B8D6E9" opacity="1.000000" stroke="none" 
	d="
M6.686799,85.212555 
	C7.484006,85.281868 8.046324,85.579018 8.899775,86.014931 
	C8.848633,87.102600 9.286255,88.878647 7.609273,88.544518 
	C6.148651,88.253502 5.787598,86.877144 6.686799,85.212555 
z"/>
<path fill="#DDEBF4" opacity="1.000000" stroke="none" 
	d="
M97.976196,134.087280 
	C97.032372,133.851425 96.114784,133.374039 96.508888,132.886459 
	C97.618797,131.513306 99.139282,133.416931 100.449745,132.690781 
	C100.548904,133.119217 100.857811,133.646072 100.710938,133.959045 
	C100.073494,135.317383 99.130676,134.404602 97.976196,134.087280 
z"/>
<path fill="#E8E8E8" opacity="1.000000" stroke="none" 
	d="
M88.501358,131.694748 
	C88.525703,132.549866 88.394737,133.178864 88.174004,133.774612 
	C87.871300,134.591599 87.918633,136.129395 86.531548,135.517593 
	C84.419930,134.586212 86.645798,133.842041 86.883720,133.013535 
	C87.090080,132.294968 87.147369,131.343567 88.501358,131.694748 
z"/>
<path fill="#E8E8E8" opacity="1.000000" stroke="none" 
	d="
M100.305122,144.122757 
	C100.140625,142.962616 100.406868,141.985016 101.762451,142.217834 
	C102.801224,142.396240 103.069244,143.247986 102.691887,144.064758 
	C102.194939,145.140396 101.337585,144.535492 100.305122,144.122757 
z"/>
<path fill="#E8E8E8" opacity="1.000000" stroke="none" 
	d="
M40.301899,142.753250 
	C41.379829,141.913574 42.261822,141.840729 42.782970,142.988235 
	C42.915432,143.279892 42.635799,143.758698 42.545525,144.151520 
	C42.319008,142.590302 39.848957,145.694870 40.301899,142.753250 
z"/>
<path fill="#DDEBF4" opacity="1.000000" stroke="none" 
	d="
M53.554684,129.471313 
	C54.561829,130.121475 55.336048,130.932480 56.230736,131.869675 
	C54.440456,131.971024 52.624218,132.403046 53.554684,129.471313 
z"/>
<path fill="#8D8D8F" opacity="1.000000" stroke="none" 
	d="
M34.507717,39.649513 
	C34.935295,40.461941 34.969254,41.266510 35.010071,42.470078 
	C34.566277,42.921101 34.115616,42.973118 33.324856,43.052467 
	C33.104034,41.849277 32.512222,40.385178 34.507717,39.649513 
z"/>
<path fill="#E8E8E8" opacity="1.000000" stroke="none" 
	d="
M56.030739,141.331360 
	C56.945179,141.049072 57.755550,141.276108 57.965500,142.676773 
	C57.998627,143.000000 58.000000,143.000000 57.999924,142.999390 
	C57.090595,142.956223 56.272404,142.772919 56.030739,141.331360 
z"/>
<path fill="#E8E8E8" opacity="1.000000" stroke="none" 
	d="
M48.597759,141.093628 
	C49.795868,142.163986 48.485680,141.977127 48.148163,142.270950 
	C48.047077,142.358932 47.638348,142.093491 47.370567,141.989990 
	C47.697769,141.686813 48.024975,141.383652 48.597759,141.093628 
z"/>
<path fill="#E8E8E8" opacity="1.000000" stroke="none" 
	d="
M55.959839,141.041733 
	C55.184597,140.922913 54.437897,140.772903 53.691193,140.622879 
	C53.760418,140.335892 53.733093,139.921036 53.915199,139.783524 
	C54.810059,139.107697 55.289986,139.832016 55.914047,140.688431 
	C56.042671,140.945694 55.988380,141.010529 55.959839,141.041733 
z"/>
<path fill="#E8E8E8" opacity="1.000000" stroke="none" 
	d="
M50.465225,143.445404 
	C50.520828,143.411087 50.409622,143.479721 50.465225,143.445404 
z"/>
<path fill="#E8E8E8" opacity="1.000000" stroke="none" 
	d="
M99.997635,143.996964 
	C99.904671,144.030792 99.814072,144.067657 99.864838,144.054672 
	C100.006210,144.004822 100.000000,144.000000 99.997635,143.996964 
z"/>
<path fill="#8D8D8F" opacity="1.000000" stroke="none" 
	d="
M45.815865,28.287518 
	C46.477741,29.287607 46.900291,30.006159 47.386654,30.678555 
	C48.096512,31.659943 48.921070,32.815598 47.521423,33.626431 
	C46.410297,34.270119 45.818989,32.981335 45.278538,32.190857 
	C43.402264,29.446575 41.560322,26.678785 39.710941,23.916174 
	C39.134777,23.055492 38.540718,21.984900 39.662720,21.322500 
	C40.773041,20.666994 41.451355,21.805239 42.003822,22.593206 
	C43.244324,24.362478 44.409321,26.184689 45.815865,28.287518 
z"/>
<path fill="#8D8D8F" opacity="1.000000" stroke="none" 
	d="
M33.397690,28.496651 
	C33.340351,26.830732 34.422546,26.244917 35.127647,27.102724 
	C37.200203,29.624134 38.975971,32.393700 40.801205,35.110928 
	C41.201981,35.707561 40.941307,36.551796 40.278168,36.718849 
	C39.795921,36.840328 38.933170,36.517651 38.629520,36.105835 
	C36.875401,33.726883 35.237083,31.262539 33.397690,28.496651 
z"/>
<path fill="#818182" opacity="1.000000" stroke="none" 
	d="
M50.839886,26.246958 
	C50.373455,25.513849 50.058468,25.115517 49.846916,24.668259 
	C48.835365,22.529615 46.175392,21.185911 46.643986,18.390217 
	C46.746002,17.781557 47.914619,17.806168 48.342068,18.351917 
	C50.479309,21.080687 53.384701,23.707119 53.649464,27.111227 
	C53.793072,28.957623 51.877754,27.388327 50.839886,26.246958 
z"/>
<path fill="#3F90C4" opacity="1.000000" stroke="none" 
	d="
M80.018234,22.497684 
	C79.996292,18.419687 79.982307,14.793939 80.034042,11.169127 
	C80.044609,10.428958 79.801018,9.439007 80.944351,9.194291 
	C81.684029,9.035976 82.384758,9.397688 82.464630,10.063269 
	C83.014580,14.645911 82.406693,19.170879 81.407379,23.629126 
	C81.297256,24.120428 80.313278,23.634556 80.018234,22.497684 
z"/>
<path fill="#569DCB" opacity="1.000000" stroke="none" 
	d="
M74.565094,19.346788 
	C74.081322,20.466860 73.857536,21.562128 73.295105,21.778957 
	C72.188828,22.205450 72.061516,21.136887 71.981766,20.299841 
	C71.965996,20.134399 71.936089,19.961168 71.966522,19.801811 
	C72.560593,16.691782 70.554939,11.068701 73.490303,10.996746 
	C76.666901,10.918878 73.957764,16.137056 74.565094,19.346788 
z"/>
<path fill="#3F90C4" opacity="1.000000" stroke="none" 
	d="
M90.161026,18.071793 
	C89.963753,19.938900 90.440559,21.493862 88.659111,23.613277 
	C87.381630,19.303831 88.081184,15.552915 88.163116,11.886333 
	C88.182617,11.013601 89.029015,11.019964 89.672905,11.183773 
	C90.435600,11.377810 90.561714,11.992708 90.501839,12.712620 
	C90.365631,14.350244 90.272675,15.991465 90.161026,18.071793 
z"/>
<path fill="#80B6D8" opacity="1.000000" stroke="none" 
	d="
M18.614010,56.438660 
	C21.549408,57.573364 24.137510,58.540546 26.725613,59.507729 
	C21.163153,61.584427 17.102633,58.101250 12.074578,56.721516 
	C14.474837,53.672718 16.378805,56.213390 18.614010,56.438660 
z"/>
<path fill="#80B6D8" opacity="1.000000" stroke="none" 
	d="
M27.424377,51.455364 
	C27.953743,52.520760 27.952593,53.831577 27.072025,53.593582 
	C23.955448,52.751240 20.931559,51.550571 17.907982,50.393131 
	C17.335842,50.174110 16.866499,49.471115 17.223612,48.778175 
	C17.699091,47.855564 18.557442,48.060787 19.338924,48.343735 
	C21.945942,49.287640 24.545855,50.251167 27.424377,51.455364 
z"/>
<path fill="#80B6D8" opacity="1.000000" stroke="none" 
	d="
M21.005192,65.859192 
	C23.472879,67.692657 22.380991,68.418663 20.485300,68.000313 
	C17.238432,67.283791 13.997976,66.320732 10.664437,63.911625 
	C14.948161,62.083191 17.536684,65.319733 21.005192,65.859192 
z"/>
<path fill="#F7FAFB" opacity="1.000000" stroke="none" 
	d="
M80.188797,98.437790 
	C81.344673,98.095238 82.164917,98.026291 82.986374,98.005569 
	C85.223175,97.949150 87.063286,98.577881 86.879784,101.237892 
	C86.721245,103.536133 84.977325,103.897079 82.973373,104.045441 
	C80.370102,104.238167 79.285164,103.277031 79.643974,100.692268 
	C79.734230,100.042130 79.784866,99.386490 80.188797,98.437790 
z"/>
<path fill="#F7FAFB" opacity="1.000000" stroke="none" 
	d="
M85.356445,93.450531 
	C83.124878,93.659348 80.648026,95.362564 79.736023,92.248184 
	C79.446686,91.260109 79.205086,89.601379 80.583511,89.238907 
	C81.950874,88.879333 83.653389,88.858009 84.942093,89.365677 
	C86.664375,90.044159 86.435005,91.687164 85.356445,93.450531 
z"/>
<path fill="#F7FAFB" opacity="1.000000" stroke="none" 
	d="
M101.263016,17.007442 
	C100.970520,16.042238 101.792198,15.790982 102.758850,15.691006 
	C102.557594,16.310465 102.065308,16.643272 101.263016,17.007442 
z"/>
<path fill="#FBFDFE" opacity="1.000000" stroke="none" 
	d="
M348.828979,92.712097 
	C349.496063,96.272217 349.889160,99.440323 347.597656,102.119026 
	C345.754608,104.273521 341.905853,105.105804 340.988800,103.624016 
	C338.718781,99.956039 340.363037,95.307655 340.061829,91.072060 
	C339.988220,90.037262 340.176514,89.136993 341.574951,89.009323 
	C344.617859,88.731522 347.196564,89.331482 348.828979,92.712097 
z"/>
<path fill="#FBFDFE" opacity="1.000000" stroke="none" 
	d="
M383.657806,56.109039 
	C383.837219,51.197144 386.091522,49.594826 389.629425,51.558594 
	C392.657135,53.239162 393.123535,56.194389 392.943298,59.333378 
	C392.779144,62.191216 391.763123,64.659210 388.880280,65.585411 
	C385.917236,66.537384 383.111816,66.745232 383.627747,62.076046 
	C383.827667,60.266899 383.659027,58.417027 383.657806,56.109039 
z"/>
<path fill="#FBFDFE" opacity="1.000000" stroke="none" 
	d="
M192.005249,100.799957 
	C190.969894,102.698601 189.616608,103.617744 187.913849,103.884254 
	C185.419922,104.274590 183.237671,104.265518 183.610931,100.614716 
	C183.844711,98.328148 183.443848,95.972214 183.724899,93.696457 
	C183.926956,92.060364 182.267273,89.406158 185.623444,89.040779 
	C188.245255,88.755348 190.623001,89.242882 191.926651,91.861214 
	C193.316895,94.653488 193.471512,97.529549 192.005249,100.799957 
z"/>
<path fill="#FBFDFE" opacity="1.000000" stroke="none" 
	d="
M468.148804,63.835964 
	C465.649078,66.378868 463.115021,67.850967 461.182037,64.049805 
	C460.699860,63.101688 459.950684,60.400463 462.529266,60.117725 
	C465.031830,59.843319 468.172577,59.203354 468.148804,63.835964 
z"/>
<path fill="#F7FAFB" opacity="1.000000" stroke="none" 
	d="
M466.362610,51.243446 
	C468.316406,52.728825 468.483704,54.283005 466.806824,55.444782 
	C465.284760,56.499268 463.288666,56.360870 461.676758,55.654800 
	C460.519135,55.147720 460.848785,53.532528 461.118408,52.537476 
	C461.903687,49.639671 464.316650,51.504623 466.362610,51.243446 
z"/>
<path fill="#FAFBFB" opacity="1.000000" stroke="none" 
	d="
M179.075668,55.728004 
	C178.960831,52.985020 178.416870,50.338856 182.291824,50.978329 
	C184.446869,51.333973 185.910629,52.497463 185.096191,54.679771 
	C183.959198,57.726460 181.599808,57.602314 179.075668,55.728004 
z"/>
<path fill="#FAFBFD" opacity="1.000000" stroke="none" 
	d="
M116.832642,89.008774 
	C122.830421,90.154625 122.009781,94.554230 121.954453,98.472214 
	C121.915443,101.235031 120.576118,103.234337 117.768417,103.908020 
	C113.909203,104.834000 111.105850,102.835915 110.256310,98.657845 
	C109.185219,93.390205 111.530090,89.722061 116.832642,89.008774 
z"/>
<path fill="#FAFBFD" opacity="1.000000" stroke="none" 
	d="
M324.444214,102.383270 
	C321.399139,104.549965 318.428650,105.028427 316.095734,102.399422 
	C313.429016,99.394218 313.544220,95.711655 315.039368,92.098740 
	C316.179932,89.342743 318.461121,88.642700 321.157379,89.033615 
	C325.480316,89.660370 326.087830,92.796692 326.011230,96.397293 
	C325.968811,98.392036 326.132812,100.404305 324.444214,102.383270 
z"/>
<path fill="#FAFBFB" opacity="1.000000" stroke="none" 
	d="
M226.354950,64.775757 
	C223.632996,61.256180 223.455353,57.713356 225.041214,54.136570 
	C226.631912,50.548840 231.492966,49.693024 234.245972,52.356636 
	C236.386734,54.427849 236.880463,60.930843 234.985641,63.631550 
	C232.724579,66.854240 229.777435,66.607826 226.354950,64.775757 
z"/>
<path fill="#FBFDFE" opacity="1.000000" stroke="none" 
	d="
M369.852509,58.098335 
	C369.356842,61.771370 369.248108,65.374672 364.859161,65.958481 
	C361.190277,66.446495 358.723785,64.947685 358.035034,61.140430 
	C357.079163,55.856876 358.672211,51.955143 362.069305,51.100372 
	C366.358276,50.021187 368.277924,51.649105 369.852509,58.098335 
z"/>
<path fill="#F7FAFB" opacity="1.000000" stroke="none" 
	d="
M342.280670,51.336182 
	C344.308990,52.993420 344.500702,54.582897 342.869446,56.154209 
	C341.671204,57.308411 340.008789,57.315529 338.685974,56.790024 
	C336.899689,56.080414 337.628235,54.201530 337.735992,52.866951 
	C337.980499,49.839340 340.338226,51.333412 342.280670,51.336182 
z"/>
<path fill="#F7FAFB" opacity="1.000000" stroke="none" 
	d="
M284.229950,56.611217 
	C282.383972,56.740810 280.310333,58.007847 279.819397,55.572041 
	C279.531921,54.145767 278.781708,52.063110 280.728638,51.212234 
	C281.998840,50.657108 283.715942,50.632141 284.911560,51.795242 
	C286.553497,53.392521 286.248444,54.979462 284.229950,56.611217 
z"/>
<path fill="#E8E8E8" opacity="1.000000" stroke="none" 
	d="
M250.442383,55.625092 
	C250.721329,53.679760 249.280380,51.327438 252.196884,50.973682 
	C253.822617,50.776489 255.565140,50.719456 256.563202,52.423565 
	C257.287445,53.660122 257.293762,55.068710 256.131409,55.979939 
	C254.355408,57.372208 252.393829,57.888863 250.442383,55.625092 
z"/>
<path fill="#F7FAFB" opacity="1.000000" stroke="none" 
	d="
M243.820160,97.116653 
	C242.042038,98.353409 240.255920,98.048393 238.179825,97.680244 
	C238.563919,96.207695 238.752777,94.741524 239.339569,93.457161 
	C239.854980,92.329033 239.614532,90.769508 241.409256,89.842178 
	C242.245163,92.202507 243.042862,94.454933 243.820160,97.116653 
z"/>
<path fill="#FAFBFD" opacity="1.000000" stroke="none" 
	d="
M318.039154,53.188938 
	C318.809021,49.521587 321.209534,50.970982 322.726807,51.480236 
	C324.543701,52.090046 324.577026,54.057442 324.076233,55.716179 
	C323.424164,57.875881 321.598145,58.229385 319.702393,57.954288 
	C316.741119,57.524574 318.536102,55.099079 318.039154,53.188938 
z"/>
</svg>