<svg xmlns="http://www.w3.org/2000/svg" width="1150" height="1356" viewBox="0 0 1150 1356" version="1.1"><path d="M 535.432 24.056 C 402.024 37.005, 367.113 121.524, 393.984 366.500 C 403.903 456.938, 398.909 471.382, 328.452 556 C 288.434 604.062, 281.652 613.444, 271.342 635 C 262.485 653.519, 261.517 656.263, 255.597 679.609 C 253.102 689.449, 250.117 700.650, 248.963 704.500 C 247.810 708.350, 246.015 714.425, 244.974 718 C 235.642 750.063, 226.800 769.219, 193.234 830.085 C 188.811 838.107, 183.530 847.969, 181.500 852 C 166.380 882.023, 160.034 918.887, 167.857 931.243 L 169.787 934.292 166.387 939.025 C 164.478 941.682, 161.077 949.185, 158.633 956.129 C 150.619 978.906, 149.313 981.125, 141.906 984.543 L 135.500 987.500 104.474 988 L 73.449 988.500 66.840 991.756 C 54.581 997.795, 44.235 1011.022, 40.050 1026.003 C 35.609 1041.901, 36.167 1053.764, 43.626 1102 C 49.756 1141.636, 46.801 1156.340, 26.393 1187.765 C -2.530 1232.302, 18.365 1253.220, 106 1267.462 C 144.760 1273.762, 202.800 1289.259, 251 1306.180 C 358.721 1343.996, 394.023 1343.236, 433.488 1302.256 C 437.331 1298.265, 441.061 1295, 441.777 1295 C 442.494 1295, 444.865 1294.089, 447.048 1292.976 C 477.136 1277.626, 548.098 1269.402, 611.500 1273.916 C 619.200 1274.465, 632.250 1275.388, 640.500 1275.968 C 659.724 1277.320, 669.781 1278.281, 714.183 1283.010 C 724.458 1284.105, 733.060 1285, 733.298 1285 C 733.535 1285, 735.869 1288.713, 738.484 1293.250 C 767.099 1342.914, 842.792 1357.128, 894.477 1322.545 C 906.367 1314.588, 908.943 1312.479, 950.171 1276.944 C 1000.695 1233.397, 1024.582 1216.116, 1052 1203.276 C 1058.325 1200.315, 1070.025 1194.651, 1078 1190.691 C 1085.975 1186.731, 1094.841 1182.695, 1097.702 1181.722 C 1119.971 1174.145, 1133.259 1157.097, 1133.818 1135.388 C 1134.434 1111.460, 1127.771 1103.510, 1092.592 1086.202 C 1084.320 1082.132, 1074.952 1076.822, 1071.776 1074.401 C 1068.599 1071.980, 1063.340 1067.973, 1060.090 1065.497 C 1046.155 1054.879, 1039.894 1044.511, 1038.053 1029 C 1032.590 982.979, 1023.208 960.179, 1008.948 958.266 C 1005.378 957.787, 1004.888 957.429, 1005.312 955.606 C 1005.582 954.448, 1007.456 946.750, 1009.476 938.500 C 1025.374 873.573, 1017.256 788.006, 988.980 722.473 C 986.139 715.888, 981.799 705.550, 979.336 699.500 C 962.652 658.517, 936.635 616.649, 904.642 579.297 C 899.364 573.135, 892.466 564.360, 889.312 559.797 C 886.157 555.234, 878.143 543.850, 871.501 534.500 C 861.036 519.769, 841.692 491.021, 833.818 478.500 C 832.434 476.300, 828.480 469.100, 825.031 462.500 C 821.581 455.900, 816.813 446.900, 814.435 442.500 C 806.250 427.356, 799.116 402.357, 795.937 377.682 C 794.791 368.782, 793.169 358.125, 792.333 354 C 791.497 349.875, 790.428 342.450, 789.957 337.500 C 789.486 332.550, 788.596 324.225, 787.979 319 C 787.362 313.775, 786.485 303.425, 786.029 296 C 784.956 278.499, 779.885 229.400, 777.974 218 C 777.467 214.975, 776.332 207.775, 775.453 202 C 773.387 188.441, 767.494 164.828, 760.978 144 C 742.152 83.833, 681.442 34.337, 617.469 27 C 612.536 26.435, 605.575 25.313, 602 24.507 C 594.832 22.891, 550.523 22.591, 535.432 24.056 M 612.623 218.064 C 578.971 223.193, 564.240 244.826, 568.860 282.331 C 570.074 292.188, 572.757 303.999, 574.113 305.450 C 574.601 305.973, 575.013 307.098, 575.028 307.950 C 575.139 314.071, 580.837 322.320, 586.564 324.650 C 594.060 327.700, 594.192 327.667, 592.247 323.250 C 589.949 318.027, 589.944 287.915, 592.241 280.407 C 603.476 243.684, 646.923 244.904, 659.479 282.295 C 668.995 310.635, 662.820 334.367, 643.881 342.238 C 636.718 345.215, 638.602 348.149, 648.500 349.431 C 651.250 349.787, 656.754 351.720, 660.731 353.725 C 669.782 358.290, 669.198 359.629, 675.666 319.500 C 686.513 252.211, 660.734 210.732, 612.623 218.064 M 446.929 227.305 C 409.861 237.803, 400.774 313.734, 432.405 348.672 L 436.562 353.264 442.200 350.082 C 450.552 345.369, 450.843 344.687, 445.779 341.701 C 421.029 327.109, 422.818 272.945, 448.487 259.733 C 462.054 252.751, 478.169 261.650, 483.373 279 C 487.405 292.441, 488.234 296.802, 488.888 308 C 489.491 318.346, 492.506 323.522, 493.853 316.525 C 494.062 315.439, 494.888 314.071, 495.687 313.487 C 498.655 311.317, 499.857 290.257, 497.970 273.500 C 494.497 242.660, 470.239 220.705, 446.929 227.305 M 452.250 268.577 C 450.724 270.268, 450 272.331, 450 274.988 L 450 278.905 456.228 279.202 L 462.456 279.500 464.239 286 C 465.220 289.575, 466.367 294.300, 466.789 296.500 C 467.547 300.456, 467.604 300.500, 472.028 300.500 L 476.500 300.500 476.205 295 C 475.158 275.495, 460.549 259.381, 452.250 268.577 M 629.297 268.331 C 626.985 269.524, 625.072 270.806, 625.047 271.181 C 624.899 273.328, 629.836 279.101, 632.285 279.645 C 636.128 280.499, 641.477 287.086, 644.260 294.390 C 646.558 300.425, 646.638 300.504, 650.793 300.807 C 655.280 301.135, 655.759 300.585, 653.537 297.654 C 652.768 296.638, 651.859 292.813, 651.518 289.154 C 650.445 277.646, 648.965 274.885, 640.636 268.851 C 636.010 265.500, 634.881 265.448, 629.297 268.331 M 521.622 319.009 C 480.293 326.314, 420 370.563, 420 393.590 C 420 409.485, 457.048 435.885, 490 443.472 C 525.837 451.722, 577.010 432.746, 635.750 389.424 L 642 384.815 642 388.372 C 642 390.906, 642.575 392.238, 644 393 C 648.153 395.223, 646.204 397.359, 631.007 407.244 C 547.292 461.695, 490.605 467.264, 434.500 426.549 C 423.310 418.429, 422.967 418.439, 427.550 426.750 C 437.172 444.202, 469.146 475.508, 486 483.981 C 516.371 499.248, 548.262 495.655, 591.500 472.096 C 606.422 463.965, 673.386 419.460, 677.599 414.874 C 703.756 386.396, 691.954 370.018, 630 348.821 C 623.675 346.658, 609.050 341.131, 597.500 336.540 C 561.683 322.302, 536.242 316.425, 521.622 319.009 M 509 328.979 C 507.075 330.016, 503.795 331.162, 501.711 331.527 C 492.766 333.090, 490.788 349, 499.538 349 C 503.099 349, 512.747 339.425, 514.905 333.750 C 516.679 329.083, 513.530 326.538, 509 328.979 M 534.130 328.756 C 532.360 332.064, 535.220 337.719, 543.483 347.250 C 546.394 350.608, 555.009 348.684, 554.996 344.679 C 554.972 337.161, 536.980 323.431, 534.130 328.756 M 651.500 449.134 C 575.119 509.391, 503.828 524.961, 467 489.430 C 459.595 482.286, 437.882 464.045, 436.750 464.018 C 436.337 464.008, 436 466.003, 436 468.451 C 436 484.363, 430.522 497.873, 401.721 553 C 394.011 567.758, 392.255 571.899, 384.332 594 C 378.081 611.438, 377.409 613.872, 374.948 628 L 372.770 640.500 352.702 680.500 C 341.664 702.500, 330.638 724.550, 328.200 729.500 C 295.660 795.544, 280.845 860.611, 287.264 909.293 C 289.430 925.723, 264.950 894.401, 260.853 875.500 C 251.688 833.217, 287.779 723.904, 325.619 679.341 C 331.158 672.818, 331.156 669, 325.614 669 C 324.522 669, 322.601 668.034, 321.344 666.853 C 318.493 664.175, 317.869 664.636, 311.252 674.294 C 299.347 691.670, 286.630 717.946, 263.967 772 C 221.127 874.179, 240.295 914.680, 369.832 995.695 C 380.771 1002.536, 424.404 1045.086, 435.344 1059.579 C 453.768 1083.988, 454.028 1095.254, 436.566 1112.500 C 422.397 1126.493, 413.507 1132, 405.085 1132 C 385.661 1132, 421.174 1176.343, 449.520 1187.484 C 543.449 1224.401, 673.172 1182.610, 742.397 1093.134 L 751.190 1081.768 750.789 1064.134 C 750.466 1049.898, 750.034 1045.664, 748.549 1042.159 C 744.676 1033.016, 747.889 990.924, 753.714 974.500 C 764.748 943.391, 784.974 932.416, 808.817 944.603 C 818.483 949.543, 817.383 951.486, 819.634 925.500 C 820.872 911.220, 821.282 894.701, 821.286 859 C 821.292 802.256, 820.391 789.631, 814.502 764 C 813.176 758.225, 811.115 749, 809.924 743.500 C 804.132 716.768, 795.641 697.952, 776.277 668.938 C 767.995 656.530, 759.764 643.480, 757.985 639.938 C 756.206 636.397, 751.941 628.325, 748.507 622 C 744.774 615.123, 741.574 607.686, 740.549 603.500 C 736.699 587.783, 734.990 578.256, 734.383 569.123 C 733.789 560.192, 733.429 558.936, 729.381 551.659 C 726.982 547.347, 720.906 535.647, 715.880 525.659 C 710.853 515.672, 705.028 504.575, 702.935 501 C 700.843 497.425, 697.268 489.775, 694.992 484 C 684.858 458.286, 673.733 434, 672.121 434.072 C 671.230 434.112, 661.950 440.890, 651.500 449.134 M 819.073 643.635 C 815.716 647.902, 816.414 649.194, 824.254 653.231 C 888.712 686.424, 908.570 772.864, 875.891 878 C 870.542 895.208, 870.216 895.850, 865.657 898.168 C 850.470 905.890, 836.412 919.768, 825.683 937.631 C 819.144 948.517, 821.746 956.639, 829 947.986 C 862.924 907.519, 881.783 900.333, 928.814 909.954 C 959.209 916.172, 991.822 939.302, 992.022 954.782 C 992.118 962.183, 1000.337 963.043, 1000.807 955.701 C 1002.754 925.244, 965.047 900.219, 910 895.438 C 888.495 893.569, 887.649 893.381, 888.449 890.651 C 913.317 805.803, 910.183 733.169, 879.621 686.106 C 864.862 663.378, 849.077 649.520, 831.145 643.548 C 821.701 640.403, 821.614 640.404, 819.073 643.635 M 205.500 932.129 C 182.504 938.657, 171.462 950.544, 167.393 973.150 C 163.200 996.444, 157.479 999.491, 115.055 1001.020 C 72.004 1002.571, 67.456 1003.981, 58.659 1018.500 C 49.546 1033.542, 47.757 1049.664, 52.500 1074 C 53.947 1081.425, 55.996 1092, 57.054 1097.500 C 59.629 1110.892, 60.494 1127.619, 59.113 1137.325 C 57.142 1151.177, 54.565 1157.583, 38.323 1189.009 C 17.485 1229.330, 30.555 1243.776, 97.500 1254.417 C 118.798 1257.803, 149.390 1263.619, 162 1266.680 C 178.924 1270.788, 214.804 1281.406, 230 1286.804 C 234.675 1288.464, 246.150 1292.521, 255.500 1295.820 C 264.850 1299.118, 277 1303.457, 282.500 1305.461 C 343.050 1327.530, 366.125 1329.151, 394.930 1313.364 C 458.118 1278.733, 445.529 1214.630, 350.671 1088 C 325.531 1054.438, 315.110 1038.717, 301.953 1014.500 C 276.271 967.229, 251.937 942.085, 222.163 932.055 C 214.862 929.595, 214.419 929.597, 205.500 932.129 M 784.459 955.880 C 775.236 960.069, 768.722 973.316, 766.046 993.322 C 765.395 998.189, 764.994 1030.495, 764.984 1078.822 C 764.971 1143.937, 764.730 1157.470, 763.491 1162.500 C 762.678 1165.800, 761.321 1173.225, 760.475 1179 C 759.630 1184.775, 758.495 1191.750, 757.954 1194.500 C 757.413 1197.250, 756.551 1207.825, 756.038 1218 C 755.526 1228.175, 754.681 1238.525, 754.160 1241 C 753.639 1243.475, 751.776 1253.268, 750.018 1262.762 L 746.824 1280.023 749.439 1284.486 C 759.460 1301.586, 776.652 1316.309, 794.986 1323.495 C 822.688 1334.351, 860.699 1330.381, 883.168 1314.286 C 887.751 1311.003, 893.942 1307.009, 896.927 1305.409 C 901.994 1302.693, 936.616 1273.605, 973.407 1241.153 C 998.154 1219.326, 1046.346 1190.891, 1079.535 1178.535 C 1126.585 1161.018, 1133.313 1127.941, 1095 1102.506 C 1088.959 1098.496, 1085.317 1096.643, 1072.614 1091.117 C 1046.252 1079.650, 1028.203 1052.569, 1021.494 1014.415 C 1016.766 987.527, 1011.530 971.092, 1007.627 970.889 C 1000.512 970.519, 994.829 973.057, 989.857 978.827 C 988.011 980.970, 981.604 987.135, 975.620 992.528 C 969.636 997.920, 962.661 1005.013, 960.120 1008.291 C 943.202 1030.113, 916.344 1042.517, 889.500 1040.906 C 849.622 1038.513, 830.998 1020.249, 819.465 972.225 C 815.970 957.672, 798.485 949.508, 784.459 955.880" stroke="none" fill="#060606" fill-rule="evenodd"/><path d="M 0 678.001 L 0 1356.002 575.250 1355.751 L 1150.500 1355.500 1150.751 677.750 L 1151.001 -0 575.501 -0 L 0 0 0 678.001 M 0.497 678.500 C 0.497 1051.400, 0.611 1204.100, 0.750 1017.832 C 0.889 831.565, 0.889 526.465, 0.750 339.832 C 0.611 153.200, 0.497 305.600, 0.497 678.500 M 535.432 24.056 C 402.024 37.005, 367.113 121.524, 393.984 366.500 C 403.903 456.938, 398.909 471.382, 328.452 556 C 288.434 604.062, 281.652 613.444, 271.342 635 C 262.485 653.519, 261.517 656.263, 255.597 679.609 C 253.102 689.449, 250.117 700.650, 248.963 704.500 C 247.810 708.350, 246.015 714.425, 244.974 718 C 235.642 750.063, 226.800 769.219, 193.234 830.085 C 188.811 838.107, 183.530 847.969, 181.500 852 C 166.380 882.023, 160.034 918.887, 167.857 931.243 L 169.787 934.292 166.387 939.025 C 164.478 941.682, 161.077 949.185, 158.633 956.129 C 150.619 978.906, 149.313 981.125, 141.906 984.543 L 135.500 987.500 104.474 988 L 73.449 988.500 66.840 991.756 C 54.581 997.795, 44.235 1011.022, 40.050 1026.003 C 35.609 1041.901, 36.167 1053.764, 43.626 1102 C 49.756 1141.636, 46.801 1156.340, 26.393 1187.765 C -2.530 1232.302, 18.365 1253.220, 106 1267.462 C 144.760 1273.762, 202.800 1289.259, 251 1306.180 C 358.721 1343.996, 394.023 1343.236, 433.488 1302.256 C 437.331 1298.265, 441.061 1295, 441.777 1295 C 442.494 1295, 444.865 1294.089, 447.048 1292.976 C 477.136 1277.626, 548.098 1269.402, 611.500 1273.916 C 619.200 1274.465, 632.250 1275.388, 640.500 1275.968 C 659.724 1277.320, 669.781 1278.281, 714.183 1283.010 C 724.458 1284.105, 733.060 1285, 733.298 1285 C 733.535 1285, 735.869 1288.713, 738.484 1293.250 C 767.099 1342.914, 842.792 1357.128, 894.477 1322.545 C 906.367 1314.588, 908.943 1312.479, 950.171 1276.944 C 1000.695 1233.397, 1024.582 1216.116, 1052 1203.276 C 1058.325 1200.315, 1070.025 1194.651, 1078 1190.691 C 1085.975 1186.731, 1094.841 1182.695, 1097.702 1181.722 C 1119.971 1174.145, 1133.259 1157.097, 1133.818 1135.388 C 1134.434 1111.460, 1127.771 1103.510, 1092.592 1086.202 C 1084.320 1082.132, 1074.952 1076.822, 1071.776 1074.401 C 1068.599 1071.980, 1063.340 1067.973, 1060.090 1065.497 C 1046.155 1054.879, 1039.894 1044.511, 1038.053 1029 C 1032.590 982.979, 1023.208 960.179, 1008.948 958.266 C 1005.378 957.787, 1004.888 957.429, 1005.312 955.606 C 1005.582 954.448, 1007.456 946.750, 1009.476 938.500 C 1025.374 873.573, 1017.256 788.006, 988.980 722.473 C 986.139 715.888, 981.799 705.550, 979.336 699.500 C 962.652 658.517, 936.635 616.649, 904.642 579.297 C 899.364 573.135, 892.466 564.360, 889.312 559.797 C 886.157 555.234, 878.143 543.850, 871.501 534.500 C 861.036 519.769, 841.692 491.021, 833.818 478.500 C 832.434 476.300, 828.480 469.100, 825.031 462.500 C 821.581 455.900, 816.813 446.900, 814.435 442.500 C 806.250 427.356, 799.116 402.357, 795.937 377.682 C 794.791 368.782, 793.169 358.125, 792.333 354 C 791.497 349.875, 790.428 342.450, 789.957 337.500 C 789.486 332.550, 788.596 324.225, 787.979 319 C 787.362 313.775, 786.485 303.425, 786.029 296 C 784.956 278.499, 779.885 229.400, 777.974 218 C 777.467 214.975, 776.332 207.775, 775.453 202 C 773.387 188.441, 767.494 164.828, 760.978 144 C 742.152 83.833, 681.442 34.337, 617.469 27 C 612.536 26.435, 605.575 25.313, 602 24.507 C 594.832 22.891, 550.523 22.591, 535.432 24.056 M 612.623 218.064 C 578.971 223.193, 564.240 244.826, 568.860 282.331 C 570.074 292.188, 572.757 303.999, 574.113 305.450 C 574.601 305.973, 575.013 307.098, 575.028 307.950 C 575.139 314.071, 580.837 322.320, 586.564 324.650 C 594.060 327.700, 594.192 327.667, 592.247 323.250 C 589.949 318.027, 589.944 287.915, 592.241 280.407 C 603.476 243.684, 646.923 244.904, 659.479 282.295 C 668.995 310.635, 662.820 334.367, 643.881 342.238 C 636.718 345.215, 638.602 348.149, 648.500 349.431 C 651.250 349.787, 656.754 351.720, 660.731 353.725 C 669.782 358.290, 669.198 359.629, 675.666 319.500 C 686.513 252.211, 660.734 210.732, 612.623 218.064 M 446.929 227.305 C 409.861 237.803, 400.774 313.734, 432.405 348.672 L 436.562 353.264 442.200 350.082 C 450.552 345.369, 450.843 344.687, 445.779 341.701 C 421.029 327.109, 422.818 272.945, 448.487 259.733 C 462.054 252.751, 478.169 261.650, 483.373 279 C 487.405 292.441, 488.234 296.802, 488.888 308 C 489.491 318.346, 492.506 323.522, 493.853 316.525 C 494.062 315.439, 494.888 314.071, 495.687 313.487 C 498.655 311.317, 499.857 290.257, 497.970 273.500 C 494.497 242.660, 470.239 220.705, 446.929 227.305 M 452.250 268.577 C 450.724 270.268, 450 272.331, 450 274.988 L 450 278.905 456.228 279.202 L 462.456 279.500 464.239 286 C 465.220 289.575, 466.367 294.300, 466.789 296.500 C 467.547 300.456, 467.604 300.500, 472.028 300.500 L 476.500 300.500 476.205 295 C 475.158 275.495, 460.549 259.381, 452.250 268.577 M 629.297 268.331 C 626.985 269.524, 625.072 270.806, 625.047 271.181 C 624.899 273.328, 629.836 279.101, 632.285 279.645 C 636.128 280.499, 641.477 287.086, 644.260 294.390 C 646.558 300.425, 646.638 300.504, 650.793 300.807 C 655.280 301.135, 655.759 300.585, 653.537 297.654 C 652.768 296.638, 651.859 292.813, 651.518 289.154 C 650.445 277.646, 648.965 274.885, 640.636 268.851 C 636.010 265.500, 634.881 265.448, 629.297 268.331 M 521.622 319.009 C 480.293 326.314, 420 370.563, 420 393.590 C 420 409.485, 457.048 435.885, 490 443.472 C 525.837 451.722, 577.010 432.746, 635.750 389.424 L 642 384.815 642 388.372 C 642 390.906, 642.575 392.238, 644 393 C 648.153 395.223, 646.204 397.359, 631.007 407.244 C 547.292 461.695, 490.605 467.264, 434.500 426.549 C 423.310 418.429, 422.967 418.439, 427.550 426.750 C 437.172 444.202, 469.146 475.508, 486 483.981 C 516.371 499.248, 548.262 495.655, 591.500 472.096 C 606.422 463.965, 673.386 419.460, 677.599 414.874 C 703.756 386.396, 691.954 370.018, 630 348.821 C 623.675 346.658, 609.050 341.131, 597.500 336.540 C 561.683 322.302, 536.242 316.425, 521.622 319.009 M 509 328.979 C 507.075 330.016, 503.795 331.162, 501.711 331.527 C 492.766 333.090, 490.788 349, 499.538 349 C 503.099 349, 512.747 339.425, 514.905 333.750 C 516.679 329.083, 513.530 326.538, 509 328.979 M 534.130 328.756 C 532.360 332.064, 535.220 337.719, 543.483 347.250 C 546.394 350.608, 555.009 348.684, 554.996 344.679 C 554.972 337.161, 536.980 323.431, 534.130 328.756 M 651.500 449.134 C 575.119 509.391, 503.828 524.961, 467 489.430 C 459.595 482.286, 437.882 464.045, 436.750 464.018 C 436.337 464.008, 436 466.003, 436 468.451 C 436 484.363, 430.522 497.873, 401.721 553 C 394.011 567.758, 392.255 571.899, 384.332 594 C 378.081 611.438, 377.409 613.872, 374.948 628 L 372.770 640.500 352.702 680.500 C 341.664 702.500, 330.638 724.550, 328.200 729.500 C 295.660 795.544, 280.845 860.611, 287.264 909.293 C 289.430 925.723, 264.950 894.401, 260.853 875.500 C 251.688 833.217, 287.779 723.904, 325.619 679.341 C 331.158 672.818, 331.156 669, 325.614 669 C 324.522 669, 322.601 668.034, 321.344 666.853 C 318.493 664.175, 317.869 664.636, 311.252 674.294 C 299.347 691.670, 286.630 717.946, 263.967 772 C 221.127 874.179, 240.295 914.680, 369.832 995.695 C 380.771 1002.536, 424.404 1045.086, 435.344 1059.579 C 453.768 1083.988, 454.028 1095.254, 436.566 1112.500 C 422.397 1126.493, 413.507 1132, 405.085 1132 C 385.661 1132, 421.174 1176.343, 449.520 1187.484 C 543.449 1224.401, 673.172 1182.610, 742.397 1093.134 L 751.190 1081.768 750.789 1064.134 C 750.466 1049.898, 750.034 1045.664, 748.549 1042.159 C 744.676 1033.016, 747.889 990.924, 753.714 974.500 C 764.748 943.391, 784.974 932.416, 808.817 944.603 C 818.483 949.543, 817.383 951.486, 819.634 925.500 C 820.872 911.220, 821.282 894.701, 821.286 859 C 821.292 802.256, 820.391 789.631, 814.502 764 C 813.176 758.225, 811.115 749, 809.924 743.500 C 804.132 716.768, 795.641 697.952, 776.277 668.938 C 767.995 656.530, 759.764 643.480, 757.985 639.938 C 756.206 636.397, 751.941 628.325, 748.507 622 C 744.774 615.123, 741.574 607.686, 740.549 603.500 C 736.699 587.783, 734.990 578.256, 734.383 569.123 C 733.789 560.192, 733.429 558.936, 729.381 551.659 C 726.982 547.347, 720.906 535.647, 715.880 525.659 C 710.853 515.672, 705.028 504.575, 702.935 501 C 700.843 497.425, 697.268 489.775, 694.992 484 C 684.858 458.286, 673.733 434, 672.121 434.072 C 671.230 434.112, 661.950 440.890, 651.500 449.134 M 819.073 643.635 C 815.716 647.902, 816.414 649.194, 824.254 653.231 C 888.712 686.424, 908.570 772.864, 875.891 878 C 870.542 895.208, 870.216 895.850, 865.657 898.168 C 850.470 905.890, 836.412 919.768, 825.683 937.631 C 819.144 948.517, 821.746 956.639, 829 947.986 C 862.924 907.519, 881.783 900.333, 928.814 909.954 C 959.209 916.172, 991.822 939.302, 992.022 954.782 C 992.118 962.183, 1000.337 963.043, 1000.807 955.701 C 1002.754 925.244, 965.047 900.219, 910 895.438 C 888.495 893.569, 887.649 893.381, 888.449 890.651 C 913.317 805.803, 910.183 733.169, 879.621 686.106 C 864.862 663.378, 849.077 649.520, 831.145 643.548 C 821.701 640.403, 821.614 640.404, 819.073 643.635 M 205.500 932.129 C 182.504 938.657, 171.462 950.544, 167.393 973.150 C 163.200 996.444, 157.479 999.491, 115.055 1001.020 C 72.004 1002.571, 67.456 1003.981, 58.659 1018.500 C 49.546 1033.542, 47.757 1049.664, 52.500 1074 C 53.947 1081.425, 55.996 1092, 57.054 1097.500 C 59.629 1110.892, 60.494 1127.619, 59.113 1137.325 C 57.142 1151.177, 54.565 1157.583, 38.323 1189.009 C 17.485 1229.330, 30.555 1243.776, 97.500 1254.417 C 118.798 1257.803, 149.390 1263.619, 162 1266.680 C 178.924 1270.788, 214.804 1281.406, 230 1286.804 C 234.675 1288.464, 246.150 1292.521, 255.500 1295.820 C 264.850 1299.118, 277 1303.457, 282.500 1305.461 C 343.050 1327.530, 366.125 1329.151, 394.930 1313.364 C 458.118 1278.733, 445.529 1214.630, 350.671 1088 C 325.531 1054.438, 315.110 1038.717, 301.953 1014.500 C 276.271 967.229, 251.937 942.085, 222.163 932.055 C 214.862 929.595, 214.419 929.597, 205.500 932.129 M 784.459 955.880 C 775.236 960.069, 768.722 973.316, 766.046 993.322 C 765.395 998.189, 764.994 1030.495, 764.984 1078.822 C 764.971 1143.937, 764.730 1157.470, 763.491 1162.500 C 762.678 1165.800, 761.321 1173.225, 760.475 1179 C 759.630 1184.775, 758.495 1191.750, 757.954 1194.500 C 757.413 1197.250, 756.551 1207.825, 756.038 1218 C 755.526 1228.175, 754.681 1238.525, 754.160 1241 C 753.639 1243.475, 751.776 1253.268, 750.018 1262.762 L 746.824 1280.023 749.439 1284.486 C 759.460 1301.586, 776.652 1316.309, 794.986 1323.495 C 822.688 1334.351, 860.699 1330.381, 883.168 1314.286 C 887.751 1311.003, 893.942 1307.009, 896.927 1305.409 C 901.994 1302.693, 936.616 1273.605, 973.407 1241.153 C 998.154 1219.326, 1046.346 1190.891, 1079.535 1178.535 C 1126.585 1161.018, 1133.313 1127.941, 1095 1102.506 C 1088.959 1098.496, 1085.317 1096.643, 1072.614 1091.117 C 1046.252 1079.650, 1028.203 1052.569, 1021.494 1014.415 C 1016.766 987.527, 1011.530 971.092, 1007.627 970.889 C 1000.512 970.519, 994.829 973.057, 989.857 978.827 C 988.011 980.970, 981.604 987.135, 975.620 992.528 C 969.636 997.920, 962.661 1005.013, 960.120 1008.291 C 943.202 1030.113, 916.344 1042.517, 889.500 1040.906 C 849.622 1038.513, 830.998 1020.249, 819.465 972.225 C 815.970 957.672, 798.485 949.508, 784.459 955.880" stroke="none" fill="#ffffff" fill-rule="evenodd"/></svg>