<svg xmlns="http://www.w3.org/2000/svg" width="1164" height="1360" viewBox="0 0 1164 1360" version="1.1"><path d="M 802.162 38.063 C 651.056 78.130, 571.322 176.648, 564.380 331.863 L 563.693 347.226 566.596 346.666 C 568.193 346.357, 572.875 345.829, 577 345.491 C 644.350 339.980, 679.186 324.476, 726.344 279.024 C 783.819 223.629, 821.109 140.357, 820.969 67.716 C 820.906 35.342, 819.685 33.417, 802.162 38.063 M 808 325.620 C 781.943 327.497, 742.295 336.366, 703.787 348.932 C 655.709 364.622, 645.669 367.572, 624 372.380 C 585.716 380.873, 565.701 378.733, 494 358.479 C 377.258 325.501, 314.494 322.572, 248.735 347.034 C 77.115 410.875, -5.144 644.039, 56.475 892 C 93.030 1039.098, 190.998 1212.818, 273 1275.947 C 339.681 1327.281, 387.445 1331.363, 481.993 1293.808 C 511.458 1282.104, 528.242 1276.848, 554.500 1271.100 C 592.994 1262.675, 640.926 1268.238, 697.500 1287.699 C 810.164 1326.454, 847.036 1326.313, 906 1286.902 C 979.816 1237.564, 1073.182 1095.811, 1110.547 976.348 L 1111.845 972.197 1102.673 969.007 C 1040.439 947.369, 971.917 869.998, 951.224 798 C 950.671 796.075, 949.024 790.450, 947.564 785.500 C 912.940 668.101, 951.376 560.042, 1062.250 463.073 C 1076.190 450.882, 1075.800 452.966, 1066.250 441.689 C 994.547 357.023, 908.561 318.377, 808 325.620" stroke="none" fill="#040404" fill-rule="evenodd"/><path d="M -0 680.001 L -0 1360.002 582.250 1359.751 L 1164.500 1359.500 1164.751 679.750 L 1165.001 0 582.501 0 L 0 0 -0 680.001 M 0.497 680.500 C 0.497 1054.500, 0.611 1207.350, 0.750 1020.168 C 0.889 832.985, 0.889 526.985, 0.750 340.168 C 0.611 153.350, 0.497 306.500, 0.497 680.500 M 802.162 38.063 C 651.056 78.130, 571.322 176.648, 564.380 331.863 L 563.693 347.226 566.596 346.666 C 568.193 346.357, 572.875 345.829, 577 345.491 C 644.350 339.980, 679.186 324.476, 726.344 279.024 C 783.819 223.629, 821.109 140.357, 820.969 67.716 C 820.906 35.342, 819.685 33.417, 802.162 38.063 M 808 325.620 C 781.943 327.497, 742.295 336.366, 703.787 348.932 C 655.709 364.622, 645.669 367.572, 624 372.380 C 585.716 380.873, 565.701 378.733, 494 358.479 C 377.258 325.501, 314.494 322.572, 248.735 347.034 C 77.115 410.875, -5.144 644.039, 56.475 892 C 93.030 1039.098, 190.998 1212.818, 273 1275.947 C 339.681 1327.281, 387.445 1331.363, 481.993 1293.808 C 511.458 1282.104, 528.242 1276.848, 554.500 1271.100 C 592.994 1262.675, 640.926 1268.238, 697.500 1287.699 C 810.164 1326.454, 847.036 1326.313, 906 1286.902 C 979.816 1237.564, 1073.182 1095.811, 1110.547 976.348 L 1111.845 972.197 1102.673 969.007 C 1040.439 947.369, 971.917 869.998, 951.224 798 C 950.671 796.075, 949.024 790.450, 947.564 785.500 C 912.940 668.101, 951.376 560.042, 1062.250 463.073 C 1076.190 450.882, 1075.800 452.966, 1066.250 441.689 C 994.547 357.023, 908.561 318.377, 808 325.620" stroke="none" fill="#ffffff" fill-rule="evenodd"/></svg>