<svg xmlns="http://www.w3.org/2000/svg" width="1430" height="1202" viewBox="0 0 1430 1202" version="1.1"><path d="M 745.625 667.798 C 745.385 668.187, 743.327 675.029, 741.052 683.002 C 738.777 690.976, 735.632 701.775, 734.063 707 C 732.494 712.225, 729.373 722.800, 727.127 730.500 C 724.881 738.200, 721.446 749.900, 719.494 756.500 C 717.541 763.100, 714.827 772.736, 713.463 777.914 C 712.098 783.092, 708.918 794.117, 706.396 802.414 C 703.874 810.711, 698.682 828.300, 694.859 841.500 C 684.674 876.666, 679.751 893.560, 674.461 911.500 C 671.866 920.300, 668.053 933.575, 665.987 941 C 662.297 954.263, 653.566 984.515, 640.013 1031 C 636.244 1043.925, 632.170 1058.100, 630.958 1062.500 C 629.747 1066.900, 627.911 1073.146, 626.878 1076.380 C 623.479 1087.023, 621.939 1085.489, 660.864 1110.241 C 698.164 1133.959, 745.049 1153.273, 785 1161.377 C 813.485 1167.155, 813.705 1167.170, 865.509 1166.764 L 913.500 1166.388 931.500 1163.145 C 985.744 1153.369, 1031.410 1139.951, 1088.593 1116.986 L 1096.685 1113.736 1101.484 1097.118 C 1104.123 1087.978, 1107.744 1075.325, 1109.531 1069 C 1111.317 1062.675, 1116.466 1044.900, 1120.972 1029.500 C 1125.477 1014.100, 1129.969 998.575, 1130.953 995 C 1131.937 991.425, 1136.446 975.900, 1140.974 960.500 C 1145.502 945.100, 1153.622 917.200, 1159.019 898.500 C 1164.416 879.800, 1172.506 851.900, 1176.997 836.500 C 1186.813 802.838, 1195.005 774.595, 1199.476 759 C 1201.289 752.675, 1205.570 738.050, 1208.990 726.500 C 1212.410 714.950, 1216.029 702.688, 1217.033 699.250 C 1219.245 691.676, 1220.218 691.698, 1202.238 698.920 C 1187.190 704.964, 1165.868 712.849, 1156 716.019 C 1086.379 738.383, 1033.211 748.026, 979.778 747.980 C 947.371 747.952, 916.470 744.367, 894 738.028 C 892.075 737.485, 887.125 736.092, 883 734.931 C 845.151 724.285, 798.267 701.691, 756.281 673.865 C 750.660 670.140, 745.865 667.410, 745.625 667.798" stroke="none" fill="#ffc403" fill-rule="evenodd"/><path d="M 424 540.678 C 403.788 541.811, 365.868 547.151, 344.500 551.875 C 342.300 552.361, 337.125 553.494, 333 554.391 C 326.099 555.893, 322.834 556.733, 305.500 561.463 C 275.700 569.594, 209.992 593.141, 206.579 596.913 C 205.678 597.909, 202.935 605.873, 200.484 614.612 C 195.790 631.344, 194.299 636.588, 192.837 641.500 C 192.345 643.150, 189.064 654.625, 185.545 667 C 182.026 679.375, 177.281 695.800, 174.999 703.500 C 172.718 711.200, 170.019 720.650, 169 724.500 C 167.982 728.350, 166.178 734.650, 164.992 738.500 C 163.806 742.350, 162.451 746.850, 161.981 748.500 C 158.983 759.028, 145.822 805.119, 144.991 808 C 142.558 816.435, 132.727 850.778, 131.967 853.500 C 131.505 855.150, 130.002 860.550, 128.625 865.500 C 127.249 870.450, 122.694 886.425, 118.503 901 C 109.985 930.624, 108.600 935.555, 104.173 952.017 C 102.469 958.352, 100.360 965.552, 99.486 968.017 C 98.612 970.483, 95.480 980.825, 92.527 991 C 89.574 1001.175, 86.226 1011.667, 85.086 1014.315 L 83.015 1019.130 85.258 1018.438 C 86.491 1018.057, 93.125 1015.510, 100 1012.777 C 115.619 1006.568, 145.988 995.697, 154.833 993.148 C 158.500 992.092, 166.900 989.571, 173.500 987.546 C 287.408 952.606, 393.945 958.529, 483.049 1004.756 C 503.010 1015.111, 518.716 1024.239, 538.704 1037.100 C 547.221 1042.580, 554.648 1047.161, 555.209 1047.282 C 555.769 1047.402, 557.519 1043, 559.096 1037.500 C 563.922 1020.673, 571.057 996.274, 575.765 980.500 C 578.227 972.250, 581.484 961, 583.001 955.500 C 584.519 950, 589.003 934.475, 592.965 921 C 604.421 882.039, 611.021 859.372, 614.514 847 C 616.300 840.675, 621.006 824.475, 624.972 811 C 628.938 797.525, 634.333 779.075, 636.961 770 C 639.589 760.925, 644.780 743.150, 648.496 730.500 C 652.212 717.850, 656.728 702.325, 658.530 696 C 660.333 689.675, 665.053 673.475, 669.019 660 C 678.451 627.952, 679.492 624.146, 678.953 623.687 C 676.381 621.500, 651.200 605.303, 639.084 598.043 C 567.896 555.386, 497.342 536.568, 424 540.678" stroke="none" fill="#02b5f1" fill-rule="evenodd"/><path d="M 538.500 44.596 C 492.510 50.303, 461.495 57.822, 409.207 75.942 C 343.997 98.540, 349.752 94.283, 340.871 126.500 C 340.264 128.700, 339.389 131.625, 338.925 133 C 337.955 135.875, 332.177 156.490, 326.032 179 C 323.705 187.525, 321.458 195.400, 321.039 196.500 C 319.556 200.393, 316.881 209.606, 308.988 238 C 307.995 241.575, 305.299 250.800, 302.998 258.500 C 300.698 266.200, 298.463 274.075, 298.032 276 C 297.600 277.925, 295.349 285.800, 293.027 293.500 C 290.706 301.200, 288.437 308.850, 287.984 310.500 C 287.531 312.150, 285.055 320.925, 282.482 330 C 278.249 344.933, 275.845 353.164, 269.923 373 C 267.500 381.118, 268.860 376.322, 246.808 454.500 C 243.078 467.725, 235.073 494.772, 230.876 508.333 C 227.320 519.820, 227.275 519.677, 233.608 516.924 C 255.699 507.322, 297.905 492.596, 334 481.896 C 373.353 470.230, 415.923 463.251, 453.563 462.294 C 534.572 460.235, 624.308 489.387, 691.675 539.647 C 700.742 546.411, 700.192 546.578, 702.852 536.250 C 704.091 531.438, 706.422 523.225, 708.031 518 C 709.641 512.775, 713.395 499.950, 716.373 489.500 C 721.457 471.665, 735.058 424.693, 749.672 374.500 C 756.247 351.916, 757.198 348.615, 761.335 334 C 762.659 329.325, 766.523 316.050, 769.923 304.500 C 777.449 278.930, 777.015 280.437, 781.459 264.500 C 783.454 257.350, 785.932 249.025, 786.967 246 C 788.002 242.975, 790.040 236, 791.496 230.500 C 792.952 225, 795.890 214.650, 798.025 207.500 C 800.160 200.350, 804.437 185.725, 807.530 175 C 810.623 164.275, 815.144 148.872, 817.577 140.771 C 820.009 132.670, 822 125.817, 822 125.543 C 822 123.436, 771.813 92.895, 752.500 83.248 C 713.545 63.792, 687.841 54.984, 646 46.753 C 636.138 44.813, 550.584 43.096, 538.500 44.596" stroke="none" fill="#f86828" fill-rule="evenodd"/><path d="M 883.155 177.750 C 882.034 181.463, 879.035 192.150, 876.491 201.500 C 873.948 210.850, 870.802 222.100, 869.500 226.500 C 868.199 230.900, 861.961 252.725, 855.639 275 C 849.316 297.275, 839.800 330.800, 834.492 349.500 C 823.864 386.941, 815.538 416.999, 807.347 447.500 C 801.436 469.512, 800.019 474.655, 793.980 496 C 791.724 503.975, 789.218 512.975, 788.412 516 C 787.605 519.025, 786.106 524.200, 785.081 527.500 C 784.056 530.800, 781.768 538.900, 779.997 545.500 C 776.729 557.679, 775.126 563.362, 770.405 579.500 C 765.868 595.006, 764.565 592.368, 782.648 604.274 C 897.736 680.051, 1003.774 695.528, 1139.734 656.396 C 1151.963 652.876, 1163.663 649.351, 1165.734 648.563 C 1167.805 647.774, 1175.311 645.054, 1182.412 642.519 C 1196.904 637.346, 1221.059 627.682, 1232.268 622.574 C 1239.520 619.269, 1239.714 619.085, 1240.948 614.347 C 1241.641 611.681, 1243.997 603.425, 1246.183 596 C 1251.117 579.236, 1260.095 548.262, 1264.443 533 C 1274.683 497.059, 1277.466 487.451, 1280.516 477.500 C 1282.371 471.450, 1285.437 460.875, 1287.330 454 C 1289.224 447.125, 1294.012 430.475, 1297.971 417 C 1301.931 403.525, 1306.881 386.425, 1308.971 379 C 1311.062 371.575, 1315.551 356.050, 1318.947 344.500 C 1322.342 332.950, 1329.620 307.975, 1335.119 289 C 1363.771 190.141, 1363.073 195.587, 1346.193 202.624 C 1309.695 217.840, 1252.746 235.487, 1217.404 242.534 C 1094.585 267.020, 1006.072 249.459, 898.775 179.318 C 883.595 169.396, 885.618 169.599, 883.155 177.750" stroke="none" fill="#93c400" fill-rule="evenodd"/><path d="M 0 601.001 L 0 1202.001 715.250 1201.751 L 1430.500 1201.500 1430.751 600.750 L 1431.002 0 715.501 0 L 0 0 0 601.001 M 0.497 601.500 C 0.497 932.050, 0.611 1067.126, 0.750 901.668 C 0.889 736.210, 0.889 465.760, 0.750 300.668 C 0.611 135.576, 0.497 270.950, 0.497 601.500 M 535.500 44.634 C 506.466 48.513, 494.315 50.750, 468.641 56.944 C 446.677 62.243, 405.068 75.889, 371.500 88.804 C 347.925 97.873, 347.867 97.911, 345.902 105.476 C 345.245 108.007, 341.496 121.261, 337.976 133.500 C 336.071 140.121, 334.936 144.177, 330.559 160 C 323.751 184.609, 323.287 186.228, 318.959 200.500 C 317.291 206, 315.441 212.300, 314.847 214.500 C 314.254 216.700, 313.416 219.625, 312.987 221 C 312.557 222.375, 311.518 225.975, 310.679 229 C 309.839 232.025, 308.019 238.325, 306.633 243 C 304.485 250.244, 298.778 270.388, 294.874 284.500 C 294.266 286.700, 293.425 289.625, 293.005 291 C 292.585 292.375, 291.305 296.650, 290.161 300.500 C 289.016 304.350, 287.204 310.425, 286.133 314 C 285.063 317.575, 283.890 321.625, 283.526 323 C 283.162 324.375, 282.445 326.962, 281.932 328.750 C 281.420 330.538, 280.587 333.462, 280.082 335.250 C 279.577 337.038, 276.851 346.375, 274.024 356 C 271.197 365.625, 267.345 379.125, 265.463 386 C 263.582 392.875, 261.145 401.425, 260.048 405 C 256.963 415.053, 252.916 428.952, 251.386 434.750 C 248.769 444.664, 247.111 450.535, 241.995 468 C 239.176 477.625, 235.308 490.900, 233.400 497.500 C 231.492 504.100, 229.090 511.863, 228.062 514.750 C 227.034 517.638, 226.418 520, 226.694 520 C 226.971 520, 232.823 517.731, 239.700 514.958 C 335.524 476.320, 420.184 458.137, 482 462.919 C 558.522 468.837, 634.542 497.041, 692.899 541.162 C 696.419 543.823, 699.569 545.999, 699.899 545.998 C 700.469 545.997, 703.227 536.939, 710.556 511 C 712.343 504.675, 717.489 486.900, 721.990 471.500 C 726.492 456.100, 734.924 427.075, 740.729 407 C 752.565 366.067, 768.727 310.310, 778.992 275 C 782.749 262.075, 789.938 237.325, 794.968 220 C 805.253 184.571, 817.159 143.778, 820.067 134.003 C 822.829 124.721, 823.075 125.169, 810.750 117.045 C 751.468 77.970, 704.236 57.480, 649 46.873 C 638.125 44.785, 547.722 43.002, 535.500 44.634 M 883.160 177.750 C 882.041 181.463, 878.815 192.825, 875.991 203 C 870.523 222.708, 847.070 305.414, 834.024 351 C 829.696 366.125, 824.516 384.575, 822.513 392 C 820.510 399.425, 816.904 412.475, 814.501 421 C 812.097 429.525, 808.483 442.800, 806.470 450.500 C 804.457 458.200, 802.394 465.850, 801.885 467.500 C 801.139 469.918, 794.304 494.316, 787.877 517.500 C 787.267 519.700, 786.379 522.625, 785.903 524 C 785.427 525.375, 784.315 529.200, 783.432 532.500 C 782.549 535.800, 781.456 539.850, 781.002 541.500 C 780.549 543.150, 778.835 549.450, 777.194 555.500 C 771.463 576.629, 770.924 578.546, 768.844 585.204 C 766.394 593.050, 766.641 594.100, 771.701 597.336 C 773.790 598.673, 780.675 603.141, 787 607.266 C 823.104 630.814, 857.954 647.703, 897.776 660.951 C 989.788 691.561, 1111.245 677.545, 1233.106 622.253 L 1239.712 619.256 1241.915 610.878 C 1243.126 606.270, 1245.491 598, 1247.169 592.500 C 1248.847 587, 1252.155 575.750, 1254.522 567.500 C 1260.542 546.507, 1276.757 490.491, 1293.021 434.500 C 1298.613 415.250, 1304.907 393.425, 1307.009 386 C 1309.110 378.575, 1314.060 361.475, 1318.008 348 C 1321.955 334.525, 1329.602 308.200, 1335.001 289.500 C 1340.399 270.800, 1347.578 246.050, 1350.955 234.500 C 1357.644 211.617, 1359.661 199, 1356.630 199 C 1355.718 199, 1351.040 200.609, 1346.236 202.575 C 1165.448 276.559, 1037.785 269.749, 897.740 178.650 C 891.273 174.442, 885.804 171, 885.588 171 C 885.372 171, 884.279 174.037, 883.160 177.750 M 424 540.678 C 403.788 541.811, 365.868 547.151, 344.500 551.875 C 342.300 552.361, 337.125 553.494, 333 554.391 C 326.099 555.893, 322.834 556.733, 305.500 561.463 C 275.700 569.594, 209.992 593.141, 206.579 596.913 C 205.678 597.909, 202.935 605.873, 200.484 614.612 C 195.790 631.344, 194.299 636.588, 192.837 641.500 C 192.345 643.150, 189.064 654.625, 185.545 667 C 182.026 679.375, 177.281 695.800, 174.999 703.500 C 172.718 711.200, 170.019 720.650, 169 724.500 C 167.982 728.350, 166.178 734.650, 164.992 738.500 C 163.806 742.350, 162.451 746.850, 161.981 748.500 C 158.983 759.028, 145.822 805.119, 144.991 808 C 142.558 816.435, 132.727 850.778, 131.967 853.500 C 131.505 855.150, 130.002 860.550, 128.625 865.500 C 127.249 870.450, 122.694 886.425, 118.503 901 C 109.985 930.624, 108.600 935.555, 104.173 952.017 C 102.469 958.352, 100.360 965.552, 99.486 968.017 C 98.612 970.483, 95.480 980.825, 92.527 991 C 89.574 1001.175, 86.226 1011.667, 85.086 1014.315 L 83.015 1019.130 85.258 1018.438 C 86.491 1018.057, 93.125 1015.510, 100 1012.777 C 115.619 1006.568, 145.988 995.697, 154.833 993.148 C 158.500 992.092, 166.900 989.571, 173.500 987.546 C 287.408 952.606, 393.945 958.529, 483.049 1004.756 C 503.010 1015.111, 518.716 1024.239, 538.704 1037.100 C 547.221 1042.580, 554.648 1047.161, 555.209 1047.282 C 555.769 1047.402, 557.519 1043, 559.096 1037.500 C 563.922 1020.673, 571.057 996.274, 575.765 980.500 C 578.227 972.250, 581.484 961, 583.001 955.500 C 584.519 950, 589.003 934.475, 592.965 921 C 604.421 882.039, 611.021 859.372, 614.514 847 C 616.300 840.675, 621.006 824.475, 624.972 811 C 628.938 797.525, 634.333 779.075, 636.961 770 C 639.589 760.925, 644.780 743.150, 648.496 730.500 C 652.212 717.850, 656.728 702.325, 658.530 696 C 660.333 689.675, 665.053 673.475, 669.019 660 C 678.451 627.952, 679.492 624.146, 678.953 623.687 C 676.381 621.500, 651.200 605.303, 639.084 598.043 C 567.896 555.386, 497.342 536.568, 424 540.678 M 745.625 667.798 C 745.385 668.187, 743.327 675.029, 741.052 683.002 C 738.777 690.976, 735.632 701.775, 734.063 707 C 732.494 712.225, 729.373 722.800, 727.127 730.500 C 724.881 738.200, 721.446 749.900, 719.494 756.500 C 717.541 763.100, 714.827 772.736, 713.463 777.914 C 712.098 783.092, 708.918 794.117, 706.396 802.414 C 703.874 810.711, 698.682 828.300, 694.859 841.500 C 684.674 876.666, 679.751 893.560, 674.461 911.500 C 671.866 920.300, 668.053 933.575, 665.987 941 C 662.297 954.263, 653.566 984.515, 640.013 1031 C 636.244 1043.925, 632.170 1058.100, 630.958 1062.500 C 629.747 1066.900, 627.911 1073.146, 626.878 1076.380 C 623.479 1087.023, 621.939 1085.489, 660.864 1110.241 C 698.164 1133.959, 745.049 1153.273, 785 1161.377 C 813.485 1167.155, 813.705 1167.170, 865.509 1166.764 L 913.500 1166.388 931.500 1163.145 C 985.744 1153.369, 1031.410 1139.951, 1088.593 1116.986 L 1096.685 1113.736 1101.484 1097.118 C 1104.123 1087.978, 1107.744 1075.325, 1109.531 1069 C 1111.317 1062.675, 1116.466 1044.900, 1120.972 1029.500 C 1125.477 1014.100, 1129.969 998.575, 1130.953 995 C 1131.937 991.425, 1136.446 975.900, 1140.974 960.500 C 1145.502 945.100, 1153.622 917.200, 1159.019 898.500 C 1164.416 879.800, 1172.506 851.900, 1176.997 836.500 C 1186.813 802.838, 1195.005 774.595, 1199.476 759 C 1201.289 752.675, 1205.570 738.050, 1208.990 726.500 C 1212.410 714.950, 1216.029 702.688, 1217.033 699.250 C 1219.245 691.676, 1220.218 691.698, 1202.238 698.920 C 1187.190 704.964, 1165.868 712.849, 1156 716.019 C 1086.379 738.383, 1033.211 748.026, 979.778 747.980 C 947.371 747.952, 916.470 744.367, 894 738.028 C 892.075 737.485, 887.125 736.092, 883 734.931 C 845.151 724.285, 798.267 701.691, 756.281 673.865 C 750.660 670.140, 745.865 667.410, 745.625 667.798" stroke="none" fill="#ffffff" fill-rule="evenodd"/></svg>